<svg width="57" height="66" viewBox="0 0 57 66" fill="none" xmlns="http://www.w3.org/2000/svg">
<path d="M6.87415 12.7096C7.44698 12.7096 7.91138 12.2452 7.91138 11.6724V2.07715H49.0886V11.6724C49.0886 12.2452 49.553 12.7096 50.1258 12.7096C50.6987 12.7096 51.1631 12.2452 51.1631 11.6724V1.03992C51.1631 0.46709 50.6987 0.00268555 50.1258 0.00268555H6.87415C6.30132 0.00268555 5.83691 0.46709 5.83691 1.03992V11.6724C5.83691 12.2452 6.30132 12.7096 6.87415 12.7096Z" fill="#1D407E"/>
<path d="M51.1628 40.1393V26.8853C51.1628 26.3124 50.6984 25.848 50.1256 25.848C49.5528 25.848 49.0884 26.3124 49.0884 26.8853V40.0458H45.7435V23.7736H54.2745C54.8474 23.7736 55.3118 23.3091 55.3118 22.7363V15.8214C55.3118 15.2486 54.8474 14.7842 54.2745 14.7842H45.7435V11.6725C45.7435 11.0997 45.2791 10.6353 44.7062 10.6353H12.2931C11.7203 10.6353 11.2559 11.0997 11.2559 11.6725V14.7842H2.72482C2.15199 14.7842 1.68758 15.2486 1.68758 15.8214V22.7363C1.68758 23.3091 2.15199 23.7736 2.72482 23.7736H11.2559V40.0458H7.91099V26.8853C7.91099 26.3124 7.44658 25.848 6.87375 25.848C6.30092 25.848 5.83652 26.3124 5.83652 26.8853V40.1393C3.08882 40.6308 0.996094 43.0365 0.996094 45.9235V56.9169C0.996094 57.4897 1.4605 57.9541 2.03333 57.9541H2.37907V63.9655C2.37907 64.5384 2.84348 65.0028 3.41631 65.0028H12.2931C12.8659 65.0028 13.3303 64.5384 13.3303 63.9655V61.0658C13.3303 60.493 12.8659 60.0286 12.2931 60.0286C11.7203 60.0286 11.2559 60.493 11.2559 61.0658V62.9283H4.45354V57.9541H52.5457V62.9283H45.7433V61.0658C45.7433 60.493 45.2789 60.0286 44.7061 60.0286C44.1333 60.0286 43.6689 60.493 43.6689 61.0658V63.9655C43.6689 64.5384 44.1333 65.0028 44.7061 65.0028H53.5829C54.1557 65.0028 54.6201 64.5384 54.6201 63.9655V57.9541H54.9659C55.5387 57.9541 56.0031 57.4897 56.0031 56.9169V45.9235C56.0032 43.0365 53.9105 40.6308 51.1628 40.1393ZM50.1256 42.1203C52.2227 42.1203 53.9288 43.8263 53.9288 45.9235V50.3478H45.7435V42.1203H50.1256ZM53.9288 55.8797H3.07056V52.4222H53.9286V55.8797H53.9288ZM13.3305 23.7736H43.669V50.3476H13.3305V23.7736ZM53.2374 21.6991H51.163V16.8587H53.2374V21.6991ZM49.0885 16.8587V21.6991H45.7436V16.8587H49.0885ZM43.6691 21.6991H29.537V12.7097H43.6691V21.6991ZM13.3305 12.7097H27.4626V21.6991H13.3305V12.7097ZM11.256 21.6991H7.91113V16.8587H11.256V21.6991ZM3.76219 16.8587H5.83666V21.6991H3.76219V16.8587ZM6.87389 42.1203H11.256V50.3478H3.0707V45.9235C3.0707 43.8263 4.77688 42.1203 6.87389 42.1203Z" fill="#1D407E"/>
<path d="M16.4415 35.8265H40.5567C41.1295 35.8265 41.5939 35.3621 41.5939 34.7893C41.5939 31.5483 38.9573 28.9116 35.7162 28.9116H21.282C18.0409 28.9116 15.4043 31.5483 15.4043 34.7893C15.4043 35.3621 15.8687 35.8265 16.4415 35.8265ZM21.282 30.9861H35.7162C37.454 30.9861 38.9231 32.1575 39.3756 33.7521H17.6226C18.0751 32.1573 19.5444 30.9861 21.282 30.9861Z" fill="#1D407E"/>
<path d="M40.5568 37.9009H16.4415C15.8687 37.9009 15.4043 38.3653 15.4043 38.9381C15.4043 39.5109 15.8687 39.9753 16.4415 39.9753H40.5567C41.1295 39.9753 41.5939 39.5109 41.5939 38.9381C41.5939 38.3653 41.1296 37.9009 40.5568 37.9009Z" fill="#1D407E"/>
<path d="M40.5568 42.0498H16.4415C15.8687 42.0498 15.4043 42.5142 15.4043 43.087C15.4043 43.6599 15.8687 44.1243 16.4415 44.1243H40.5567C41.1295 44.1243 41.5939 43.6599 41.5939 43.087C41.5939 42.5142 41.1296 42.0498 40.5568 42.0498Z" fill="#1D407E"/>
<path d="M40.5568 46.1987H16.4415C15.8687 46.1987 15.4043 46.6631 15.4043 47.236C15.4043 47.8088 15.8687 48.2732 16.4415 48.2732H40.5567C41.1295 48.2732 41.5939 47.8088 41.5939 47.236C41.5939 46.6631 41.1296 46.1987 40.5568 46.1987Z" fill="#1D407E"/>
</svg>
