<svg width="66" height="66" viewBox="0 0 66 66" fill="none" xmlns="http://www.w3.org/2000/svg">
<path d="M0.690092 6.9457L5.02165 14.5255C5.16776 14.7816 5.41231 14.9669 5.69829 15.0386L9.73942 16.0489L23.5996 29.9091L25.1311 28.3781L11.0539 14.3014C10.9154 14.1624 10.7417 14.064 10.5515 14.0163L6.66849 13.0421L2.9806 6.58489L6.14241 3.42308L12.6023 7.11453L13.577 10.9975C13.6242 11.1882 13.7231 11.3623 13.8616 11.5009L27.9388 25.578L29.4698 24.0466L15.6096 10.1864L14.5993 6.14745C14.5276 5.86103 14.3423 5.61603 14.0861 5.46948L6.5059 1.13836C6.08316 0.897817 5.55129 0.96909 5.20652 1.31253L0.875399 5.64409C0.527057 5.98665 0.45133 6.5194 0.690092 6.9457Z" fill="#1D407E"/>
<path d="M45.7092 22.3289L21.8869 46.1516L20.3555 44.6201L44.1782 20.7979L45.7092 22.3289Z" fill="#1D407E"/>
<path d="M17.7174 46.9942C17.5214 46.6681 17.1695 46.469 16.7891 46.469H10.2922C9.9122 46.469 9.55984 46.6681 9.36429 46.9942L6.11562 52.4082C5.90938 52.7512 5.90938 53.1802 6.11562 53.5236L9.36429 58.9376C9.55984 59.2632 9.9122 59.4628 10.2922 59.4628H16.7891C17.1695 59.4628 17.5214 59.2632 17.7174 58.9376L20.9656 53.5236C21.1719 53.1802 21.1719 52.7512 20.9656 52.4082L17.7174 46.9942ZM16.1766 57.297H10.9051L8.30635 52.9659L10.9051 48.6343H16.1766L18.7753 52.9659L16.1766 57.297Z" fill="#1D407E"/>
<path d="M52.5229 26.978C59.6747 27.0021 65.4922 21.2237 65.5163 14.072C65.5199 12.9833 65.3862 11.8991 65.1185 10.8438C64.9742 10.2634 64.3866 9.91014 63.8062 10.0545C63.6156 10.1021 63.4418 10.2006 63.3029 10.3391L56.5623 17.0752L51.2142 15.293L49.4306 9.94623L56.1712 3.20433C56.5939 2.78115 56.5935 2.0956 56.1703 1.67287C56.0309 1.53345 55.8554 1.43456 55.6634 1.38734C48.7277 -0.369075 41.682 3.8293 39.9256 10.7645C39.6588 11.8167 39.5256 12.8982 39.5292 13.9838C39.5318 14.8364 39.6196 15.6863 39.7924 16.5211L16.078 40.2351C15.2432 40.0627 14.3933 39.9749 13.5411 39.9718C6.36446 39.9718 0.546875 45.7894 0.546875 52.9661C0.546875 60.1423 6.36446 65.9599 13.5411 65.9599C20.7173 65.9599 26.5349 60.1423 26.5349 52.9661C26.5322 52.1135 26.444 51.2636 26.2717 50.4288L31.9489 44.7515L34.4319 47.2345C34.855 47.6572 35.5401 47.6572 35.9633 47.2345L36.5045 46.6928C36.9794 46.2211 37.7469 46.2211 38.2218 46.6928C38.6962 47.1659 38.6971 47.9338 38.224 48.4082C38.2235 48.4087 38.2226 48.4096 38.2218 48.4104L37.6805 48.9517C37.2578 49.3744 37.2578 50.0599 37.6805 50.4827L50.5977 63.3999C53.9952 66.8285 59.5285 66.8534 62.9572 63.456C66.3854 60.0585 66.4103 54.5247 63.0129 51.0965C62.9946 51.0778 62.9759 51.0591 62.9572 51.0404L50.04 38.1237C49.6173 37.7009 48.9317 37.7009 48.509 38.1237L47.9678 38.6649C47.4925 39.1371 46.7254 39.1371 46.2501 38.6649C45.7762 38.1918 45.7748 37.4239 46.2479 36.9499C46.2488 36.949 46.2497 36.9486 46.2501 36.9477L46.7918 36.406C47.2145 35.9833 47.2145 35.2977 46.7918 34.875L44.3088 32.392L49.9861 26.7148C50.8209 26.8872 51.6708 26.9754 52.5229 26.978ZM56.7774 63.7945C55.9908 63.7932 55.2108 63.6511 54.4745 63.3745L62.9313 54.9171C64.2076 58.3119 62.4904 62.0983 59.0956 63.3745C58.3548 63.6529 57.5695 63.7954 56.7774 63.7945ZM44.5102 35.6514C43.311 37.0817 43.499 39.2137 44.9294 40.4124C46.1864 41.4659 48.0186 41.465 49.2743 40.4093L61.4262 52.5718C61.558 52.7041 61.6814 52.8436 61.8008 52.9852L52.5425 62.2435C52.4004 62.1245 52.261 62.0011 52.1287 61.8688L39.9675 49.7067C41.1666 48.2764 40.9786 46.1444 39.5483 44.9457C38.2912 43.8918 36.4587 43.8931 35.2029 44.9484L33.4706 43.216L42.7774 33.9231L44.5102 35.6514ZM48.8827 24.7606L24.3183 49.3201C24.0489 49.5891 23.9406 49.9798 24.0324 50.349C25.5179 56.1831 21.9927 62.117 16.1581 63.6021C10.3241 65.0877 4.39022 61.5624 2.90465 55.7279C1.41951 49.8938 4.94481 43.9599 10.7793 42.4744C12.5442 42.0254 14.3933 42.0254 16.1581 42.4744C16.5274 42.5648 16.9172 42.4566 17.1871 42.1888L41.7457 17.6289C42.0148 17.3599 42.123 16.9692 42.0304 16.6004C40.555 10.8345 44.0331 4.96431 49.799 3.48853C50.8886 3.21012 52.0156 3.10321 53.1381 3.17315L47.4261 8.88739C47.1361 9.17693 47.0345 9.6059 47.1642 9.99478L49.3295 16.4921C49.4378 16.8151 49.6917 17.069 50.0151 17.1763L56.5124 19.3421C56.9008 19.4717 57.3298 19.3706 57.6198 19.0811L63.3318 13.3691C63.3447 13.5758 63.3514 13.7802 63.3514 13.9838C63.3817 19.9337 58.5833 24.7815 52.6334 24.8123C51.7136 24.8167 50.7968 24.7036 49.9059 24.4755C49.5366 24.3833 49.146 24.4911 48.8769 24.7601H48.8827V24.7606Z" fill="#1D407E"/>
<path d="M56.5382 55.4486L55.0067 56.9801L44.1787 46.1521L45.7097 44.6206L56.5382 55.4486Z" fill="#1D407E"/>
</svg>
