<svg width="56" height="70" viewBox="0 0 56 70" fill="none" xmlns="http://www.w3.org/2000/svg">
<path d="M55.0667 0.00268555H0.933333C0.373333 0.00268555 0 0.462685 0 1.15269V10.3527C0 12.3077 1.21333 13.8027 2.8 13.8027H5.69333C6.16 17.1377 8.4 19.5527 11.2 19.5527H17.7333V35.6527H3.73333C3.17333 35.6527 2.8 36.1127 2.8 36.8027V51.7527C2.8 52.2127 2.89333 52.5577 2.98667 52.9027H0.933333C0.373333 52.9027 0 53.3627 0 54.0527V66.7027C0 68.0827 0.746667 69.0027 1.86667 69.0027H54.1333C55.2533 69.0027 56 68.0827 56 66.7027V54.0527V1.15269C56 0.462685 55.6267 0.00268555 55.0667 0.00268555ZM1.86667 10.3527V2.30269H54.1333V52.9027H42.9333V13.8027H51.3333V11.5027H42H34.5333H6.53333H2.8C2.24 11.5027 1.86667 11.0427 1.86667 10.3527ZM38.08 52.9027C38.1733 52.5577 38.2667 52.2127 38.2667 51.7527V36.8027C38.2667 36.1127 37.8933 35.6527 37.3333 35.6527H23.3333V19.5527H29.8667C32.76 19.5527 35 17.1377 35.3733 13.8027H41.0667V52.9027H38.08ZM18.6667 17.2527H11.2C9.42667 17.2527 7.93333 15.7577 7.56 13.8027H33.5067C33.04 15.7577 31.64 17.2527 29.8667 17.2527H22.4C21.84 17.2527 21.4667 17.7127 21.4667 18.4027V35.6527H19.6V18.4027C19.6 17.7127 19.2267 17.2527 18.6667 17.2527ZM4.66667 51.7527V42.5527H33.6V40.2527H4.66667V37.9527H18.6667H22.4H36.4V51.7527C36.4 52.4427 36.0267 52.9027 35.4667 52.9027H5.6C5.04 52.9027 4.66667 52.4427 4.66667 51.7527ZM5.6 55.2027H35.4667H42H54.1333V62.1027H1.86667V55.2027H5.6ZM1.86667 66.7027V64.4027H54.1333V66.7027H1.86667Z" fill="#45668E"/>
<path d="M48.5331 31.0527C46.4798 31.0527 44.7998 33.1227 44.7998 35.6527C44.7998 38.1827 46.4798 40.2527 48.5331 40.2527C50.5865 40.2527 52.2665 38.1827 52.2665 35.6527C52.2665 33.1227 50.5865 31.0527 48.5331 31.0527ZM48.5331 37.9527C47.5065 37.9527 46.6665 36.9177 46.6665 35.6527C46.6665 34.3877 47.5065 33.3527 48.5331 33.3527C49.5598 33.3527 50.3998 34.3877 50.3998 35.6527C50.3998 36.9177 49.5598 37.9527 48.5331 37.9527Z" fill="#45668E"/>
<path d="M45.7331 16.1028C45.1731 16.1028 44.7998 16.5628 44.7998 17.2528V26.4528C44.7998 27.1428 45.1731 27.6028 45.7331 27.6028H51.3331C51.8931 27.6028 52.2665 27.1428 52.2665 26.4528V17.2528C52.2665 16.5628 51.8931 16.1028 51.3331 16.1028H45.7331ZM50.3998 25.3028H46.6665V18.4028H50.3998V25.3028Z" fill="#45668E"/>
<path d="M6.53268 57.5029H4.66602V59.803H6.53268V57.5029Z" fill="#45668E"/>
<path d="M10.2671 57.5029H8.40039V59.803H10.2671V57.5029Z" fill="#45668E"/>
<path d="M13.9995 57.5029H12.1328V59.803H13.9995V57.5029Z" fill="#45668E"/>
<path d="M17.7339 57.5029H15.8672V59.803H17.7339V57.5029Z" fill="#45668E"/>
<path d="M21.4663 57.5029H19.5996V59.803H21.4663V57.5029Z" fill="#45668E"/>
<path d="M25.2007 57.5029H23.334V59.803H25.2007V57.5029Z" fill="#45668E"/>
<path d="M28.9331 57.5029H27.0664V59.803H28.9331V57.5029Z" fill="#45668E"/>
<path d="M32.6665 57.5029H30.7998V59.803H32.6665V57.5029Z" fill="#45668E"/>
<path d="M36.3999 57.5029H34.5332V59.803H36.3999V57.5029Z" fill="#45668E"/>
<path d="M40.1333 57.5029H38.2666V59.803H40.1333V57.5029Z" fill="#45668E"/>
<path d="M43.8667 57.5029H42V59.803H43.8667V57.5029Z" fill="#45668E"/>
<path d="M47.6001 57.5029H45.7334V59.803H47.6001V57.5029Z" fill="#45668E"/>
<path d="M51.3335 57.5029H49.4668V59.803H51.3335V57.5029Z" fill="#45668E"/>
<path d="M47.6001 43.7026H45.7334V46.0026H47.6001V43.7026Z" fill="#45668E"/>
<path d="M51.3335 43.7026H49.4668V46.0026H51.3335V43.7026Z" fill="#45668E"/>
<path d="M47.6001 48.3027H45.7334V50.6027H47.6001V48.3027Z" fill="#45668E"/>
<path d="M51.3335 48.3027H49.4668V50.6027H51.3335V48.3027Z" fill="#45668E"/>
</svg>
