<svg width="65" height="66" viewBox="0 0 65 66" fill="none" xmlns="http://www.w3.org/2000/svg">
<path d="M64.9698 20.4334C64.964 20.3969 64.9762 20.3609 64.9698 20.325L61.7199 7.32495C61.5998 6.84147 61.165 6.5024 60.6667 6.50293H58.5V5.4196C58.4963 2.42932 56.0736 0.00663249 53.0833 0.00292969H11.9167C8.92639 0.00663249 6.5037 2.42932 6.5 5.4196V6.50293H4.33333C3.8361 6.50293 3.40287 6.84147 3.28227 7.32389L0.0322673 20.3239C0.0238038 20.3609 0.0322673 20.3969 0.0322673 20.4323C0.0179851 20.4826 0.00687674 20.5344 1.18465e-07 20.5863V22.2113C-0.000528853 24.8736 1.77047 27.2116 4.33333 27.9321V63.9196C4.33333 64.5179 4.8184 65.0029 5.41667 65.0029H59.5833C60.1816 65.0029 60.6667 64.5179 60.6667 63.9196V27.931C63.2295 27.2111 65.0005 24.8736 65 22.2113V20.5863C64.9937 20.5344 64.9836 20.4836 64.9698 20.4334ZM62.5292 19.5029H55.0844L53.2796 8.6696H59.8208L62.5292 19.5029ZM41.2534 8.6696L42.1558 19.5029H33.5833V8.6696H41.2534ZM51.0822 8.6696L52.8871 19.5029H44.3289L43.4264 8.6696H51.0822ZM31.4167 19.5029H22.8442L23.7466 8.6696H31.4167V19.5029ZM20.6701 19.5029H12.1119L13.9167 8.6696H21.5715L20.6701 19.5029ZM20.5833 21.6696C20.5897 22.8206 20.1353 23.9267 19.3212 24.7408C18.5071 25.5549 17.401 26.0093 16.25 26.0029C14.5298 25.9987 12.9725 24.9836 12.2743 23.4115C12.0383 22.8614 11.9167 22.2684 11.9167 21.6696H20.5833ZM31.4167 21.6696C31.423 22.8206 30.9686 23.9267 30.1545 24.7408C29.3405 25.5549 28.2344 26.0093 27.0833 26.0029C25.3631 25.9987 23.8058 24.9836 23.1076 23.4115C22.8717 22.8614 22.75 22.2684 22.75 21.6696H31.4167ZM42.25 21.6696C42.2563 22.8206 41.802 23.9267 40.9879 24.7408C40.1738 25.5549 39.0677 26.0093 37.9167 26.0029C36.1965 25.9987 34.6392 24.9836 33.9409 23.4115C33.705 22.8614 33.5833 22.2684 33.5833 21.6696H42.25ZM53.0833 21.6696C53.0897 22.8206 52.6353 23.9267 51.8212 24.7408C51.0071 25.5549 49.901 26.0093 48.75 26.0029C47.0298 25.9987 45.4725 24.9836 44.7743 23.4115C44.5383 22.8614 44.4167 22.2684 44.4167 21.6696H53.0833ZM8.66667 5.4196C8.66667 3.6248 10.1219 2.1696 11.9167 2.1696H53.0833C54.8781 2.1696 56.3333 3.6248 56.3333 5.4196V6.50293H8.66667V5.4196ZM5.17916 8.6696H11.7204L9.91557 19.5029H2.47083L5.17916 8.6696ZM2.16667 22.2113V21.6696H9.75V22.2113C9.75265 22.6434 9.67912 23.073 9.53312 23.4797C8.99886 24.9952 7.56535 26.0072 5.95833 26.0029C5.8171 26.0029 5.67586 25.9945 5.53569 25.977C3.61658 25.7649 2.16508 24.142 2.16667 22.2113ZM10.8333 62.8363V36.8363H23.8333V62.8363H10.8333ZM58.5 62.8363H26V35.7529C26 35.1547 25.5149 34.6696 24.9167 34.6696H9.75C9.15173 34.6696 8.66667 35.1547 8.66667 35.7529V62.8363H6.5V28.1458C6.58675 28.1373 6.67139 28.1188 6.75655 28.1066C6.84224 28.095 6.91947 28.085 6.99935 28.0712C7.23686 28.0294 7.47119 27.9733 7.70129 27.903C7.73621 27.8924 7.77059 27.8855 7.80973 27.875C8.06946 27.7898 8.32284 27.6866 8.56828 27.566C8.6344 27.5348 8.69682 27.4978 8.76188 27.4576C8.94332 27.3619 9.11947 27.2561 9.28979 27.1413C9.35592 27.0968 9.42151 27.054 9.48551 27.0069C9.6934 26.8567 9.89124 26.6932 10.0785 26.5176C10.088 26.5076 10.1012 26.4991 10.1108 26.4885C10.3049 26.2992 10.4858 26.0971 10.6524 25.8839C10.7011 25.822 10.7445 25.757 10.791 25.693C10.8508 25.611 10.9159 25.5316 10.9709 25.4459C11.0402 25.5427 11.1206 25.6289 11.1952 25.7215C11.256 25.7972 11.3131 25.8728 11.3771 25.9442C11.5316 26.1193 11.695 26.2854 11.868 26.4414C11.9082 26.4795 11.9447 26.5208 11.987 26.5578C12.2034 26.7451 12.4314 26.9186 12.6694 27.0767C12.7334 27.1175 12.8006 27.1524 12.8656 27.1926C13.0455 27.301 13.2285 27.4089 13.4184 27.4999C13.5094 27.5444 13.6025 27.5824 13.6945 27.6226C13.8686 27.6983 14.0452 27.7655 14.2262 27.8263C14.3261 27.8586 14.4245 27.8903 14.5256 27.9183C14.717 27.9723 14.9112 28.0136 15.108 28.0495C15.1989 28.0654 15.2889 28.086 15.3814 28.0992C15.967 28.1865 16.5621 28.1865 17.1482 28.0992C17.2434 28.086 17.3354 28.0633 17.4285 28.0463C17.6248 28.0104 17.82 27.9702 18.0094 27.9162C18.1178 27.8855 18.2194 27.8501 18.3246 27.8152C18.4981 27.7559 18.669 27.6919 18.8372 27.6184C18.9398 27.574 19.0419 27.5274 19.1424 27.4772C19.3085 27.3952 19.4677 27.3042 19.6259 27.2074C19.7169 27.1524 19.8089 27.0995 19.8978 27.0397C20.0697 26.9228 20.2332 26.7937 20.394 26.6615C20.4574 26.6086 20.5246 26.5621 20.5865 26.5076C20.8044 26.3129 21.0097 26.1045 21.2006 25.8839C21.2324 25.8469 21.2583 25.8056 21.2885 25.7691C21.4228 25.6041 21.5561 25.4438 21.6751 25.2608C21.801 25.4449 21.9359 25.6221 22.0793 25.7919C22.1041 25.822 22.1258 25.8569 22.1523 25.8871C22.3427 26.1077 22.5479 26.3156 22.7664 26.5086C22.8293 26.5652 22.8976 26.6171 22.9621 26.6668C23.1213 26.798 23.2874 26.9249 23.4551 27.0408C23.5429 27.1005 23.6339 27.1492 23.7238 27.2074C23.8831 27.3042 24.0492 27.3952 24.2105 27.4782C24.3099 27.5274 24.411 27.574 24.5125 27.6184C24.6818 27.6919 24.8548 27.757 25.0304 27.8152C25.1335 27.8501 25.2351 27.8855 25.3404 27.9162C25.5319 27.9691 25.7271 28.0104 25.9244 28.0463C26.0185 28.0633 26.1095 28.086 26.2037 28.0992C26.7929 28.1871 27.3923 28.1871 27.9815 28.0992C28.0767 28.086 28.1688 28.0633 28.2619 28.0463C28.4581 28.0104 28.6533 27.9702 28.8427 27.9162C28.9511 27.8855 29.0527 27.8501 29.158 27.8152C29.3315 27.7559 29.5023 27.6919 29.6705 27.6184C29.7732 27.574 29.8752 27.5274 29.9757 27.4772C30.1418 27.3952 30.3011 27.3042 30.4592 27.2074C30.5502 27.1524 30.6423 27.0995 30.7311 27.0397C30.903 26.9228 31.0665 26.7937 31.2273 26.6615C31.2908 26.6086 31.358 26.5621 31.4198 26.5076C31.6378 26.3129 31.843 26.1045 32.034 25.8839C32.0657 25.8469 32.0916 25.8056 32.1218 25.7691C32.2561 25.6041 32.3894 25.4438 32.5085 25.2608C32.6344 25.4449 32.7692 25.6221 32.9126 25.7919C32.9375 25.822 32.9591 25.8569 32.9856 25.8871C33.176 26.1077 33.3813 26.3156 33.5997 26.5086C33.6627 26.5652 33.7309 26.6171 33.7955 26.6668C33.9547 26.798 34.1208 26.9249 34.2885 27.0408C34.3763 27.1005 34.4672 27.1492 34.5572 27.2074C34.7164 27.3042 34.8825 27.3952 35.0438 27.4782C35.1433 27.5274 35.2443 27.574 35.3459 27.6184C35.5151 27.6919 35.6881 27.757 35.8637 27.8152C35.9722 27.8501 36.0684 27.8855 36.1737 27.9162C36.3652 27.9691 36.5604 28.0104 36.7577 28.0463C36.8518 28.0633 36.9428 28.086 37.037 28.0992C37.6263 28.1871 38.2256 28.1871 38.8149 28.0992C38.9101 28.086 39.0021 28.0633 39.0952 28.0463C39.2915 28.0104 39.4867 27.9702 39.676 27.9162C39.7845 27.8855 39.886 27.8501 39.9913 27.8152C40.1648 27.7559 40.3357 27.6919 40.5039 27.6184C40.6065 27.574 40.7086 27.5274 40.8091 27.4772C40.9752 27.3952 41.1344 27.3042 41.2926 27.2074C41.3835 27.1524 41.4756 27.0995 41.5645 27.0397C41.7364 26.9228 41.8998 26.7937 42.0606 26.6615C42.1241 26.6086 42.1913 26.5621 42.2532 26.5076C42.4711 26.3129 42.6764 26.1045 42.8673 25.8839C42.899 25.8469 42.925 25.8056 42.9551 25.7691C43.0895 25.6041 43.2228 25.4438 43.3418 25.2608C43.4677 25.4449 43.6026 25.6221 43.7459 25.7919C43.7708 25.822 43.7925 25.8569 43.8189 25.8871C44.0094 26.1077 44.2146 26.3156 44.4331 26.5086C44.496 26.5652 44.5643 26.6171 44.6288 26.6668C44.788 26.798 44.9541 26.9249 45.1218 27.0408C45.2096 27.1005 45.3006 27.1492 45.3905 27.2074C45.5497 27.3042 45.7158 27.3952 45.8772 27.4782C45.9766 27.5274 46.0776 27.574 46.1792 27.6184C46.3485 27.6919 46.5214 27.757 46.6971 27.8152C46.8055 27.8501 46.9018 27.8855 47.007 27.9162C47.1985 27.9691 47.3937 28.0104 47.591 28.0463C47.6852 28.0633 47.7762 28.086 47.8703 28.0992C48.4564 28.1865 49.052 28.1865 49.6381 28.0992C49.7302 28.086 49.8191 28.0654 49.91 28.0495C50.1073 28.0136 50.3025 27.9723 50.493 27.9183C50.5951 27.8903 50.6934 27.8586 50.7934 27.8263C50.9743 27.7655 51.1494 27.6972 51.324 27.6226C51.4171 27.5824 51.5102 27.5433 51.6012 27.4989C51.7921 27.4058 51.9762 27.301 52.156 27.1905C52.2201 27.1503 52.2862 27.1164 52.3486 27.0757C52.5882 26.917 52.8162 26.743 53.0326 26.5541C53.0759 26.5166 53.1145 26.4732 53.1569 26.434C53.3283 26.2785 53.4906 26.1135 53.6435 25.94C53.7075 25.8675 53.7657 25.7919 53.8255 25.7168C53.9001 25.6247 53.9794 25.539 54.0487 25.4427C54.1027 25.5274 54.1667 25.6041 54.2254 25.6855C54.273 25.7506 54.3174 25.8178 54.3671 25.8807C54.5338 26.0944 54.7147 26.297 54.9088 26.4869C54.9183 26.4959 54.9284 26.5023 54.9379 26.5123C55.1262 26.6895 55.3251 26.8546 55.5351 27.0059C55.5986 27.0529 55.6637 27.0958 55.7298 27.1402C55.9006 27.2555 56.0778 27.3613 56.2598 27.4576C56.3238 27.4925 56.3862 27.5285 56.4524 27.566C56.6978 27.6872 56.9512 27.7903 57.2109 27.875C57.2432 27.8855 57.2781 27.8924 57.3114 27.9019C57.5426 27.9728 57.778 28.0289 58.016 28.0712C58.0969 28.085 58.1773 28.0961 58.2583 28.1066C58.3397 28.1178 58.4286 28.1373 58.5153 28.1458L58.5 62.8363ZM62.8333 22.2113C62.8323 24.1478 61.3718 25.7728 59.4458 25.9791C59.3114 25.9955 59.1766 26.0035 59.0417 26.0029C57.432 26.004 55.998 24.9873 55.4669 23.4681C55.3219 23.065 55.2484 22.6397 55.25 22.2113V21.6696H62.8333V22.2113Z" fill="#1D407E"/>
<path d="M48.7503 43.3361V42.2528C48.7503 41.6545 48.2653 41.1694 47.667 41.1694H32.5003C31.9021 41.1694 31.417 41.6545 31.417 42.2528V47.6694C31.4223 52.4535 35.2996 56.3308 40.0837 56.3361C43.175 56.3477 46.0325 54.691 47.5586 52.0028H48.7503C51.1434 52.0028 53.0837 50.0625 53.0837 47.6694C53.0837 45.2764 51.1434 43.3361 48.7503 43.3361ZM40.0837 54.1694C36.4951 54.1657 33.5874 51.258 33.5837 47.6694V43.3361H46.5837V47.6694C46.5874 48.6343 46.371 49.5875 45.951 50.4555C44.8888 52.7338 42.5973 54.1848 40.0837 54.1694ZM50.2812 49.2003C49.876 49.6081 49.3248 49.8372 48.7503 49.8361H48.4774C48.4869 49.7991 48.4901 49.7605 48.4991 49.7277C48.5541 49.5034 48.5932 49.2749 48.6302 49.0453C48.6472 48.9368 48.6726 48.8284 48.6863 48.7126C48.7281 48.3666 48.7493 48.018 48.7503 47.6694V45.5028C49.6258 45.5038 50.4145 46.0317 50.7498 46.8405C51.0847 47.6493 50.8995 48.5803 50.2812 49.2003Z" fill="#1D407E"/>
<path d="M30.333 57.4195C30.333 58.0178 30.8181 58.5028 31.4163 58.5028H48.7497C49.3479 58.5028 49.833 58.0178 49.833 57.4195C49.833 56.8212 49.3479 56.3362 48.7497 56.3362H31.4163C30.8181 56.3362 30.333 56.8212 30.333 57.4195Z" fill="#1D407E"/>
<path d="M36.8333 40.0861C37.4316 40.0861 37.9167 39.601 37.9167 39.0028C37.9167 37.9702 38.543 37.4492 39.6501 36.6192C40.808 35.7528 42.25 34.6694 42.25 32.5028C42.25 31.9045 41.7649 31.4194 41.1667 31.4194C40.5684 31.4194 40.0833 31.9045 40.0833 32.5028C40.0833 33.5353 39.457 34.0564 38.3499 34.8863C37.192 35.7528 35.75 36.8361 35.75 39.0028C35.75 39.601 36.2351 40.0861 36.8333 40.0861Z" fill="#1D407E"/>
<path d="M42.2503 40.0861C42.8486 40.0861 43.3337 39.601 43.3337 39.0028C43.3337 37.9702 43.96 37.4492 45.0671 36.6192C46.225 35.7528 47.667 34.6694 47.667 32.5028C47.667 31.9045 47.1819 31.4194 46.5837 31.4194C45.9854 31.4194 45.5003 31.9045 45.5003 32.5028C45.5003 33.5353 44.874 34.0564 43.7669 34.8863C42.609 35.7528 41.167 36.8361 41.167 39.0028C41.167 39.601 41.6521 40.0861 42.2503 40.0861Z" fill="#1D407E"/>
</svg>
