<svg width="37" height="68" viewBox="0 0 37 68" fill="none" xmlns="http://www.w3.org/2000/svg">
<path d="M12.38 20.7595H12.3816C12.383 20.7595 12.3843 20.7593 12.3857 20.7593H31.2072C31.6706 20.7593 32.078 20.4632 32.2053 20.034L36.3578 6.03402C36.4473 5.7322 36.3846 5.40772 36.1886 5.1572C35.9923 4.90668 35.6855 4.75928 35.3597 4.75928H9.98582L9.24373 1.54235C9.13802 1.0848 8.71683 0.759277 8.23021 0.759277H2.0015C1.4281 0.759277 0.963379 1.20693 0.963379 1.75928C0.963379 2.31162 1.4281 2.75928 2.0015 2.75928H7.39755C7.52894 3.32933 10.9488 18.1538 11.1456 19.0067C10.0423 19.4687 9.26833 20.5283 9.26833 21.7593C9.26833 23.4135 10.6655 24.7593 12.3827 24.7593H31.2072C31.7806 24.7593 32.2453 24.3116 32.2453 23.7593C32.2453 23.2069 31.7806 22.7593 31.2072 22.7593H12.3827C11.8104 22.7593 11.3446 22.3106 11.3446 21.7593C11.3446 21.2088 11.8087 20.7609 12.38 20.7595V20.7595ZM33.9834 6.75928L30.424 18.7593H13.2153L10.447 6.75928H33.9834Z" fill="#1D407E"/>
<path d="M11.3447 27.7593C11.3447 29.4134 12.7419 30.7593 14.4591 30.7593C16.1763 30.7593 17.5734 29.4134 17.5734 27.7593C17.5734 26.1051 16.1763 24.7593 14.4591 24.7593C12.7419 24.7593 11.3447 26.1051 11.3447 27.7593ZM14.4591 26.7593C15.0314 26.7593 15.4972 27.208 15.4972 27.7593C15.4972 28.3106 15.0314 28.7593 14.4591 28.7593C13.8868 28.7593 13.421 28.3106 13.421 27.7593C13.421 27.208 13.8868 26.7593 14.4591 26.7593Z" fill="#1D407E"/>
<path d="M26.0166 27.7593C26.0166 29.4134 27.4137 30.7593 29.131 30.7593C30.8482 30.7593 32.2453 29.4134 32.2453 27.7593C32.2453 26.1051 30.8482 24.7593 29.131 24.7593C27.4137 24.7593 26.0166 26.1051 26.0166 27.7593ZM29.131 26.7593C29.7033 26.7593 30.1691 27.208 30.1691 27.7593C30.1691 28.3106 29.7033 28.7593 29.131 28.7593C28.5586 28.7593 28.0928 28.3106 28.0928 27.7593C28.0928 27.208 28.5586 26.7593 29.131 26.7593Z" fill="#1D407E"/>
<path d="M12.38 57.7595H12.3816C12.383 57.7595 12.3843 57.7593 12.3857 57.7593H31.2072C31.6706 57.7593 32.078 57.4632 32.2053 57.034L36.3578 43.034C36.4473 42.7322 36.3846 42.4077 36.1886 42.1572C35.9923 41.9067 35.6855 41.7593 35.3597 41.7593H9.98582L9.24373 38.5424C9.13802 38.0848 8.71683 37.7593 8.23021 37.7593H2.0015C1.4281 37.7593 0.963379 38.2069 0.963379 38.7593C0.963379 39.3116 1.4281 39.7593 2.0015 39.7593H7.39755C7.52894 40.3293 10.9488 55.1538 11.1456 56.0067C10.0423 56.4687 9.26833 57.5283 9.26833 58.7593C9.26833 60.4135 10.6655 61.7593 12.3827 61.7593H31.2072C31.7806 61.7593 32.2453 61.3116 32.2453 60.7593C32.2453 60.2069 31.7806 59.7593 31.2072 59.7593H12.3827C11.8104 59.7593 11.3446 59.3106 11.3446 58.7593C11.3446 58.2088 11.8087 57.7609 12.38 57.7595V57.7595ZM33.9834 43.7593L30.424 55.7593H13.2153L10.447 43.7593H33.9834Z" fill="white"/>
<path d="M11.3447 64.7593C11.3447 66.4134 12.7419 67.7593 14.4591 67.7593C16.1763 67.7593 17.5734 66.4134 17.5734 64.7593C17.5734 63.1051 16.1763 61.7593 14.4591 61.7593C12.7419 61.7593 11.3447 63.1051 11.3447 64.7593ZM14.4591 63.7593C15.0314 63.7593 15.4972 64.208 15.4972 64.7593C15.4972 65.3106 15.0314 65.7593 14.4591 65.7593C13.8868 65.7593 13.421 65.3106 13.421 64.7593C13.421 64.208 13.8868 63.7593 14.4591 63.7593Z" fill="white"/>
<path d="M26.0166 64.7593C26.0166 66.4134 27.4137 67.7593 29.131 67.7593C30.8482 67.7593 32.2453 66.4134 32.2453 64.7593C32.2453 63.1051 30.8482 61.7593 29.131 61.7593C27.4137 61.7593 26.0166 63.1051 26.0166 64.7593ZM29.131 63.7593C29.7033 63.7593 30.1691 64.208 30.1691 64.7593C30.1691 65.3106 29.7033 65.7593 29.131 65.7593C28.5586 65.7593 28.0928 65.3106 28.0928 64.7593C28.0928 64.208 28.5586 63.7593 29.131 63.7593Z" fill="white"/>
</svg>
