<svg width="23" height="21" viewBox="0 0 23 21" fill="none" xmlns="http://www.w3.org/2000/svg">
<path d="M7.45701 13.4767H19.631C19.9324 13.4767 20.1969 13.2774 20.2785 12.9878L22.974 3.55408C23.0319 3.35071 22.9922 3.13224 22.8646 2.96326C22.7369 2.7948 22.5383 2.6953 22.3263 2.6953H5.90142L5.41974 0.527831C5.3513 0.219169 5.07756 0 4.76171 0H0.673826C0.301467 0 0 0.301467 0 0.673826C0 1.04636 0.301467 1.34765 0.673826 1.34765H4.22089L6.65421 12.2973C5.93827 12.6086 5.43553 13.3212 5.43553 14.1505C5.43553 15.2651 6.34239 16.172 7.45701 16.172H19.631C20.0035 16.172 20.3048 15.8707 20.3048 15.4982C20.3048 15.1258 20.0035 14.8244 19.631 14.8244H7.45701C7.08588 14.8244 6.78318 14.5224 6.78318 14.1505C6.78318 13.7787 7.08588 13.4767 7.45701 13.4767Z" fill="#1D407E"/>
<path d="M6.7832 18.1934C6.7832 19.3082 7.69006 20.2148 8.80486 20.2148C9.91948 20.2148 10.8263 19.3082 10.8263 18.1934C10.8263 17.0787 9.91948 16.1719 8.80486 16.1719C7.69006 16.1719 6.7832 17.0787 6.7832 18.1934Z" fill="#1D407E"/>
<path d="M16.2617 18.1934C16.2617 19.3082 17.1686 20.2148 18.2832 20.2148C19.398 20.2148 20.3047 19.3082 20.3047 18.1934C20.3047 17.0787 19.398 16.1719 18.2832 16.1719C17.1686 16.1719 16.2617 17.0787 16.2617 18.1934Z" fill="#1D407E"/>
</svg>
