<svg width="37" height="31" viewBox="0 0 37 31" fill="none" xmlns="http://www.w3.org/2000/svg">
<path d="M12.3795 20.7596H12.3811C12.3825 20.7596 12.3838 20.7593 12.3852 20.7593H31.2067C31.6701 20.7593 32.0775 20.4632 32.2049 20.034L36.3573 6.03402C36.4468 5.7322 36.3841 5.40772 36.1881 5.1572C35.9918 4.90668 35.685 4.75928 35.3592 4.75928H9.98533L9.24324 1.54235C9.13753 1.0848 8.71634 0.759277 8.22972 0.759277H2.00101C1.42761 0.759277 0.962891 1.20693 0.962891 1.75928C0.962891 2.31162 1.42761 2.75928 2.00101 2.75928H7.39706C7.52845 3.32933 10.9483 18.1538 11.1451 19.0067C10.0418 19.4687 9.26784 20.5283 9.26784 21.7593C9.26784 23.4135 10.665 24.7593 12.3822 24.7593H31.2067C31.7801 24.7593 32.2449 24.3116 32.2449 23.7593C32.2449 23.2069 31.7801 22.7593 31.2067 22.7593H12.3822C11.8099 22.7593 11.3441 22.3106 11.3441 21.7593C11.3441 21.2088 11.8083 20.7609 12.3795 20.7596ZM33.9829 6.75928L30.4236 18.7593H13.2149L10.4465 6.75928H33.9829Z" fill="#fff"/>
<path d="M11.3438 27.7593C11.3438 29.4134 12.7409 30.7593 14.4581 30.7593C16.1753 30.7593 17.5725 29.4134 17.5725 27.7593C17.5725 26.1051 16.1753 24.7593 14.4581 24.7593C12.7409 24.7593 11.3438 26.1051 11.3438 27.7593ZM14.4581 26.7593C15.0304 26.7593 15.4962 27.208 15.4962 27.7593C15.4962 28.3106 15.0304 28.7593 14.4581 28.7593C13.8858 28.7593 13.42 28.3106 13.42 27.7593C13.42 27.208 13.8858 26.7593 14.4581 26.7593Z" fill="#fff"/>
<path d="M26.0156 27.7593C26.0156 29.4134 27.4128 30.7593 29.13 30.7593C30.8472 30.7593 32.2443 29.4134 32.2443 27.7593C32.2443 26.1051 30.8472 24.7593 29.13 24.7593C27.4128 24.7593 26.0156 26.1051 26.0156 27.7593ZM29.13 26.7593C29.7023 26.7593 30.1681 27.208 30.1681 27.7593C30.1681 28.3106 29.7023 28.7593 29.13 28.7593C28.5577 28.7593 28.0919 28.3106 28.0919 27.7593C28.0919 27.208 28.5577 26.7593 29.13 26.7593Z" fill="#fff"/>
</svg>
