<svg width="35" height="31" viewBox="0 0 35 31" fill="none" xmlns="http://www.w3.org/2000/svg">
<path d="M9.74435 8.41699H0.749577C0.335768 8.41699 0 8.75236 0 9.16686V30.1667C0 30.5809 0.335768 30.9166 0.749577 30.9166H9.74435C10.1582 30.9166 10.4939 30.5809 10.4939 30.1667V9.16686C10.4939 8.75236 10.1582 8.41699 9.74435 8.41699ZM8.99462 29.4169H1.4993V9.91659H8.99462V29.4169Z" fill="#1D407E"/>
<path d="M34.2307 5.75391H25.2359C24.8221 5.75391 24.4863 6.12606 24.4863 6.58604V29.8898C24.4863 30.3494 24.8221 30.7219 25.2359 30.7219H34.2307C34.6445 30.7219 34.9803 30.3494 34.9803 29.8898V6.58604C34.9803 6.12606 34.6445 5.75391 34.2307 5.75391ZM33.4809 29.0576H25.9856V7.41802H33.4809V29.0576Z" fill="#1D407E"/>
<path d="M21.9864 0.916748H12.9915C12.5775 0.916748 12.2422 1.25287 12.2422 1.66677V30.1669C12.2422 30.5811 12.5775 30.9167 12.9915 30.9167H21.9864C22.4003 30.9167 22.7361 30.5811 22.7361 30.1669V1.66677C22.7361 1.25287 22.4003 0.916748 21.9864 0.916748ZM21.2368 29.417H13.7411V2.41694H21.2368V29.417Z" fill="#1D407E"/>
</svg>
