<svg width="35" height="70" viewBox="0 0 35 70" fill="none" xmlns="http://www.w3.org/2000/svg">
<path d="M9.74435 8.41699H0.749577C0.335768 8.41699 0 8.75236 0 9.16686V30.1667C0 30.5809 0.335768 30.9166 0.749577 30.9166H9.74435C10.1582 30.9166 10.4939 30.5809 10.4939 30.1667V9.16686C10.4939 8.75236 10.1582 8.41699 9.74435 8.41699ZM8.99462 29.4169H1.4993V9.91659H8.99462V29.4169Z" fill="#1D407E"/>
<path d="M34.2302 5.75391H25.2354C24.8216 5.75391 24.4858 6.12606 24.4858 6.58604V29.8898C24.4858 30.3494 24.8216 30.7219 25.2354 30.7219H34.2302C34.644 30.7219 34.9798 30.3494 34.9798 29.8898V6.58604C34.9798 6.12606 34.644 5.75391 34.2302 5.75391ZM33.4805 29.0576H25.9851V7.41802H33.4805V29.0576Z" fill="#1D407E"/>
<path d="M21.9869 0.916748H12.992C12.578 0.916748 12.2427 1.25287 12.2427 1.66677V30.1669C12.2427 30.5811 12.578 30.9167 12.992 30.9167H21.9869C22.4008 30.9167 22.7366 30.5811 22.7366 30.1669V1.66677C22.7366 1.25287 22.4008 0.916748 21.9869 0.916748ZM21.2373 29.417H13.7415V2.41694H21.2373V29.417Z" fill="#1D407E"/>
<path d="M9.74435 47.417H0.749577C0.335768 47.417 0 47.7524 0 48.1669V69.1667C0 69.5809 0.335768 69.9166 0.749577 69.9166H9.74435C10.1582 69.9166 10.4939 69.5809 10.4939 69.1667V48.1669C10.4939 47.7524 10.1582 47.417 9.74435 47.417ZM8.99462 68.4169H1.4993V48.9166H8.99462V68.4169Z" fill="white"/>
<path d="M34.2302 44.7539H25.2354C24.8216 44.7539 24.4858 45.1261 24.4858 45.586V68.8898C24.4858 69.3494 24.8216 69.7219 25.2354 69.7219H34.2302C34.644 69.7219 34.9798 69.3494 34.9798 68.8898V45.586C34.9798 45.1261 34.644 44.7539 34.2302 44.7539ZM33.4805 68.0576H25.9851V46.418H33.4805V68.0576Z" fill="white"/>
<path d="M21.9869 39.9167H12.992C12.578 39.9167 12.2427 40.2529 12.2427 40.6668V69.1669C12.2427 69.5811 12.578 69.9167 12.992 69.9167H21.9869C22.4008 69.9167 22.7366 69.5811 22.7366 69.1669V40.6668C22.7366 40.2529 22.4008 39.9167 21.9869 39.9167ZM21.2373 68.417H13.7415V41.4169H21.2373V68.417Z" fill="white"/>
</svg>
