<svg width="18" height="18" viewBox="0 0 18 18" fill="none" xmlns="http://www.w3.org/2000/svg">
<path d="M4.58371 4.69531H0.584126C0.260438 4.69531 0 4.95575 0 5.27944V16.8355C0 17.1591 0.260438 17.4196 0.584126 17.4196H4.58371C4.9074 17.4196 5.16784 17.1591 5.16784 16.8355V5.27944C5.17156 4.95575 4.9074 4.69531 4.58371 4.69531Z" fill="#fff"/>
<path d="M17.4157 7.76123H13.4162C13.0925 7.76123 12.832 8.02167 12.832 8.34536V16.8356C12.832 17.1593 13.0925 17.4198 13.4162 17.4198H17.4157C17.7394 17.4198 17.9999 17.1593 17.9999 16.8356V8.34536C17.9999 8.02167 17.7394 7.76123 17.4157 7.76123Z" fill="#fff"/>
<path d="M11.0015 0H6.99819C6.6745 0 6.41406 0.260438 6.41406 0.584126V16.8355C6.41406 17.1592 6.6745 17.4196 6.99819 17.4196H10.9978C11.3215 17.4196 11.5819 17.1592 11.5819 16.8355V0.584126C11.5856 0.260438 11.3252 0 11.0015 0Z" fill="#fff"/>
</svg>
