<svg width="172" height="35" viewBox="0 0 172 35" fill="none" xmlns="http://www.w3.org/2000/svg">
<path fill-rule="evenodd" clip-rule="evenodd" d="M41.3676 32.9711H21.4564L34.3418 29.4145L29.415 16.8206L41.3676 32.9711ZM9.88281 31.1345L19.853 13.643L16.4421 26.7616L29.6482 28.7148L9.88281 31.1345ZM27.1994 4.40161L37.1696 21.8931L27.6659 12.3603L19.3865 22.9718L27.1994 4.40161Z" fill="white" fill-opacity="0.3"/>
<path fill-rule="evenodd" clip-rule="evenodd" d="M20.5234 3.11932L19.5322 4.63525L20.9898 6.3261L20.0569 7.78373L14.8095 1.48678L15.7424 0L23.6136 2.2739L22.6807 3.73153L20.5234 3.11932ZM6.38441 28.861L0 24.6922C0.291525 24.0217 0.612203 23.4095 0.991186 22.7973C2.36136 20.6692 4.22712 20.0861 6.35525 21.4854C7.31729 22.1559 8.10441 22.9431 8.36678 24.1383C8.57085 25.2753 8.10441 26.4414 7.4922 27.3742C7.14237 27.899 6.82169 28.3654 6.38441 28.861ZM1.95322 23.9925L6.18034 26.7329C6.2678 26.6163 6.35525 26.4997 6.41356 26.3831C7.34644 24.9546 6.79254 23.8176 5.45153 22.9431C4.22712 22.1268 3.09017 22.1851 2.24475 23.4969C2.21559 23.5261 1.95322 23.9925 1.95322 23.9925ZM6.2678 17.4332L7.57966 18.2786L8.94983 16.1505L10.1742 16.9376L8.80407 19.0949L10.3492 20.1153L11.8942 17.6956L13.1478 18.5119L10.699 22.3017L4.11051 18.0163L6.50102 14.3431L7.72542 15.1593L6.2678 17.4332ZM13.9058 14.5763L15.4217 12.2149L16.6753 13.0312L14.2556 16.7919L7.69627 12.5064L8.6 11.1071L13.9058 14.5763ZM13.4393 6.38441L18.7451 9.82441L17.8414 11.2237L12.5356 7.78373L11.4569 9.41627L10.2034 8.6L13.2353 3.90644L14.4888 4.72271L13.4393 6.38441ZM18.541 3.58576L19.1532 2.65288C18.541 2.44881 17.8997 2.2739 17.2583 2.06983C17.7247 2.56542 18.1329 3.09017 18.541 3.58576Z" fill="white" fill-opacity="0.3"/>
<path d="M49.9671 6.32571H45.4776V15.1298H44.3115V5.27622H51.1041V15.1298H49.9671V6.32571ZM56.4973 24.6918L58.159 28.9772L58.538 30.4057H58.5671L58.8295 28.9481L60.1122 24.6918H61.22L58.8003 32.2132H58.2173L56.3224 27.3738L56.06 26.1494H56.0017L55.7102 27.3738L53.9027 32.2132H53.3197L50.8125 24.6918H52.0661L53.4946 28.9772L53.7569 30.4057L54.1068 28.9481L55.6519 24.6918H56.4973ZM67.4878 24.6918L69.1786 28.9772L69.5285 30.4057H69.5576L69.82 28.9481L71.1319 24.6918H72.2397L69.7908 32.2132H69.2369L67.3129 27.3738L67.0505 26.1494H66.9922L66.7007 27.3738L64.8932 32.2132H64.3102L61.803 24.6918H63.0566L64.4851 28.9772L64.7475 30.4057L65.0973 28.9481L66.6424 24.6918H67.4878ZM78.5075 24.6918L80.1692 28.9772L80.519 30.4057H80.5481L80.8397 28.9481L82.1224 24.6918H83.2302L80.7814 32.2132H80.2275L78.3325 27.3738L78.041 26.1494H78.0119L77.7203 27.3738L75.8837 32.2132H75.3298L72.7936 24.6918H74.0471L75.5047 28.9772L75.738 30.4057H75.7671L76.1169 28.9481L77.662 24.6918H78.5075ZM83.4925 31.3677C83.4925 31.1054 83.5508 30.9013 83.7258 30.7555C83.8715 30.5806 84.0756 30.5223 84.3088 30.5223C84.5712 30.5223 84.7753 30.5806 84.9502 30.7555C85.0959 30.9013 85.1834 31.1054 85.1834 31.3677C85.1834 31.6301 85.0959 31.8342 84.9502 31.98C84.7753 32.1549 84.5712 32.2132 84.3088 32.2132C84.0756 32.2132 83.8715 32.1549 83.7258 31.98C83.5508 31.8342 83.4925 31.6301 83.4925 31.3677ZM93.7542 33.904H92.9671L92.7339 32.0383H87.2824L87.0783 33.904H86.2912V31.0179H87.1366C87.2241 30.9013 87.3407 30.7264 87.4573 30.4349C87.5739 30.1725 87.6905 29.7644 87.8363 29.2688C87.9529 28.7732 88.0403 28.1318 88.1278 27.3738C88.2444 26.645 88.3027 25.7413 88.3027 24.6918H92.6756V31.0179H93.7542V33.904ZM91.5386 31.0179V25.7413H89.3522C89.3231 26.1494 89.2939 26.5867 89.2647 27.0823C89.2064 27.5488 89.1481 28.0444 89.0607 28.54C88.9732 29.0064 88.8566 29.4728 88.74 29.9101C88.6234 30.3183 88.4776 30.6972 88.3027 31.0179H91.5386ZM100.809 31.4552C100.518 31.6884 100.168 31.8925 99.7305 32.0091C99.2932 32.1549 98.8268 32.2132 98.3312 32.2132C97.7773 32.2132 97.2817 32.1257 96.8736 31.9508C96.4654 31.7759 96.1447 31.5135 95.8824 31.1637C95.62 30.843 95.4159 30.4349 95.2993 29.9684C95.1827 29.502 95.1244 28.9481 95.1244 28.365C95.1244 27.1115 95.3868 26.1786 95.9407 25.5081C96.4946 24.8667 97.2817 24.5169 98.302 24.5169C98.6227 24.5169 98.9725 24.5752 99.2932 24.6335C99.6139 24.721 99.9054 24.8376 100.168 25.0708C100.43 25.2749 100.663 25.5664 100.809 25.9162C100.984 26.2952 101.072 26.7908 101.072 27.4322C101.072 27.7528 101.042 28.1027 100.984 28.4816H96.3197C96.3197 28.9189 96.3488 29.2979 96.4363 29.6477C96.5237 29.9684 96.6695 30.26 96.8444 30.4932C97.0485 30.7264 97.2817 30.9013 97.5732 31.0179C97.8647 31.1345 98.2146 31.1928 98.6519 31.1928C98.9725 31.1928 99.3224 31.1345 99.6431 31.0179C99.9637 30.9013 100.226 30.7555 100.372 30.6098L100.809 31.4552ZM98.3312 25.5664C97.7481 25.5664 97.2817 25.7122 96.961 26.0037C96.6112 26.3244 96.4071 26.82 96.3197 27.5779H99.9346C99.9346 26.82 99.7888 26.2952 99.4973 26.0037C99.2349 25.7122 98.8268 25.5664 98.3312 25.5664ZM106.815 25.7413H104.716C104.686 26.1494 104.657 26.5867 104.628 27.0532C104.599 27.5488 104.541 28.0152 104.482 28.4816C104.424 28.9481 104.366 29.4145 104.249 29.8518C104.162 30.2891 104.045 30.6681 103.899 31.0179C103.724 31.3386 103.549 31.601 103.345 31.805C103.112 32.0091 102.85 32.0966 102.558 32.0966C102.383 32.0966 102.208 32.0966 102.092 32.0674C101.946 32.0674 101.829 32.0091 101.713 31.98L101.888 30.9888C102.004 31.0179 102.121 31.0471 102.267 31.0471C102.471 31.0471 102.646 30.9596 102.792 30.7847C102.937 30.6389 103.083 30.3183 103.2 29.8518C103.316 29.3854 103.404 28.744 103.491 27.9277C103.579 27.1115 103.608 26.0328 103.637 24.6918H107.981V32.0383H106.815V25.7413ZM111.712 31.0179C112.062 31.0762 112.412 31.1054 112.733 31.1054C113.345 31.1054 113.782 30.9888 114.074 30.7555C114.365 30.4932 114.511 30.1725 114.511 29.7352C114.511 29.3271 114.365 29.0064 114.103 28.744C113.811 28.5108 113.374 28.365 112.762 28.365C112.616 28.365 112.441 28.3942 112.237 28.3942C112.033 28.3942 111.858 28.4233 111.712 28.4816V31.0179ZM111.712 27.5196C111.945 27.4613 112.149 27.4322 112.383 27.4322C112.587 27.403 112.791 27.403 112.966 27.403C113.491 27.403 113.899 27.4613 114.248 27.5779C114.598 27.6945 114.89 27.8403 115.094 28.0444C115.327 28.2193 115.473 28.4525 115.56 28.744C115.677 29.0064 115.706 29.2979 115.706 29.5894C115.706 30.4932 115.444 31.1345 114.919 31.5427C114.394 31.9216 113.578 32.1257 112.47 32.1257C111.858 32.1257 111.217 32.0966 110.546 32.0383V24.6918H111.712V27.5196ZM121.712 25.7413H119.438V32.0383H118.272V25.7413H115.998V24.6918H121.712V25.7413ZM123.082 25.2457C123.461 25.0125 123.869 24.8667 124.364 24.7501C124.86 24.6335 125.356 24.5752 125.88 24.5752C126.405 24.5752 126.813 24.6627 127.105 24.7793C127.396 24.925 127.629 25.1 127.804 25.3332C127.95 25.5372 128.067 25.7996 128.125 26.062C128.183 26.3244 128.213 26.5867 128.213 26.8491C128.213 27.4322 128.183 28.0152 128.154 28.5691C128.125 29.123 128.125 29.6477 128.125 30.1433C128.125 30.5223 128.125 30.843 128.154 31.1928C128.183 31.5135 128.242 31.805 128.329 32.0674H127.455L127.163 31.0471H127.076C126.988 31.1928 126.901 31.3094 126.755 31.4552C126.638 31.5718 126.463 31.6884 126.288 31.805C126.114 31.8925 125.88 31.98 125.647 32.0674C125.414 32.1257 125.122 32.1549 124.831 32.1549C124.51 32.1549 124.219 32.1257 123.956 32.0091C123.694 31.9216 123.461 31.7759 123.257 31.601C123.082 31.4261 122.936 31.1928 122.819 30.9305C122.703 30.6972 122.644 30.4057 122.644 30.085C122.644 29.6477 122.732 29.2979 122.907 29.0064C123.082 28.7149 123.315 28.4816 123.636 28.3067C123.956 28.1318 124.335 28.0152 124.773 27.9277C125.21 27.8694 125.705 27.8403 126.23 27.8403C126.376 27.8403 126.493 27.8403 126.638 27.8403C126.755 27.8403 126.901 27.8403 127.017 27.8694C127.046 27.5779 127.076 27.3155 127.076 27.0823C127.076 26.5284 126.959 26.1494 126.755 25.9454C126.551 25.7122 126.143 25.6247 125.589 25.6247C125.414 25.6247 125.239 25.6247 125.064 25.6539C124.86 25.683 124.685 25.7122 124.481 25.7705C124.277 25.7996 124.102 25.8579 123.927 25.9162C123.723 25.9745 123.577 26.062 123.432 26.1494L123.082 25.2457ZM125.152 31.1345C125.414 31.1345 125.647 31.1054 125.88 31.0179C126.084 30.9596 126.259 30.8722 126.405 30.7555C126.58 30.6389 126.697 30.5223 126.813 30.3766C126.901 30.2308 126.988 30.1142 127.017 29.9684V28.744C126.901 28.744 126.755 28.744 126.609 28.744C126.463 28.744 126.347 28.7149 126.201 28.7149C125.909 28.7149 125.618 28.744 125.326 28.7732C125.035 28.8023 124.773 28.8898 124.568 28.9772C124.364 29.0647 124.189 29.1813 124.044 29.3562C123.927 29.502 123.84 29.7061 123.84 29.9684C123.84 30.2891 123.956 30.5806 124.219 30.8139C124.452 31.0179 124.773 31.1345 125.152 31.1345ZM130.457 27.2864H133.985V28.365H130.457V27.2864ZM141.914 32.2132C141.389 32.2132 140.952 32.1549 140.573 31.98C140.194 31.805 139.903 31.601 139.669 31.2803C139.436 30.9888 139.232 30.6389 139.116 30.2016C138.999 29.7644 138.941 29.2979 138.912 28.8023H137.454V32.0383H136.288V24.6918H137.454V27.782H138.912C138.999 26.7325 139.261 25.9162 139.757 25.3623C140.253 24.8084 140.981 24.5169 141.943 24.5169C142.468 24.5169 142.935 24.6044 143.314 24.8084C143.663 24.9833 143.984 25.2457 144.217 25.5664C144.451 25.9162 144.625 26.3244 144.742 26.7908C144.829 27.2572 144.888 27.8111 144.888 28.365C144.888 29.6186 144.655 30.5806 144.159 31.222C143.663 31.8925 142.935 32.2132 141.914 32.2132ZM140.019 28.365C140.019 28.744 140.048 29.123 140.107 29.4728C140.165 29.7935 140.282 30.1142 140.427 30.3766C140.573 30.6098 140.777 30.8139 141.011 30.9596C141.273 31.1345 141.564 31.1928 141.943 31.1928C142.556 31.1928 142.993 30.9596 143.284 30.5223C143.547 30.0559 143.693 29.3562 143.693 28.365C143.693 27.9861 143.663 27.6362 143.605 27.2864C143.547 26.9366 143.459 26.645 143.314 26.3827C143.197 26.1203 142.993 25.9162 142.789 25.7705C142.556 25.6247 142.264 25.5664 141.914 25.5664C141.244 25.5664 140.777 25.7705 140.486 26.2369C140.165 26.7033 140.019 27.403 140.019 28.365ZM151.301 25.7413H148.211V32.0383H147.045V24.6918H151.301V25.7413ZM151.214 31.3677C151.214 31.1054 151.272 30.9013 151.418 30.7555C151.593 30.5806 151.768 30.5223 152.03 30.5223C152.293 30.5223 152.497 30.5806 152.672 30.7555C152.817 30.9013 152.876 31.1054 152.876 31.3677C152.876 31.6301 152.817 31.8342 152.672 31.98C152.497 32.1549 152.293 32.2132 152.03 32.2132C151.768 32.2132 151.593 32.1549 151.418 31.98C151.272 31.8342 151.214 31.6301 151.214 31.3677ZM155.703 24.6918H156.491L156.724 25.5955H156.782C157.015 25.2457 157.278 24.9833 157.657 24.8084C158.006 24.6044 158.415 24.5169 158.852 24.5169C159.814 24.5169 160.543 24.8084 161.009 25.3915C161.476 25.9745 161.738 26.9074 161.738 28.2193C161.738 28.8315 161.651 29.4145 161.476 29.881C161.33 30.3766 161.097 30.8139 160.805 31.1637C160.514 31.4844 160.164 31.7467 159.756 31.9508C159.347 32.1257 158.881 32.2132 158.385 32.2132C158.036 32.2132 157.744 32.2132 157.54 32.1549C157.336 32.1257 157.103 32.0383 156.869 31.9216V34.9827H155.703V24.6918ZM158.648 25.5664C158.152 25.5664 157.744 25.683 157.482 25.9454C157.19 26.2077 156.986 26.5867 156.869 27.1406V30.7555C157.044 30.9013 157.248 31.0179 157.453 31.0762C157.686 31.1637 157.977 31.1928 158.356 31.1928C159.027 31.1928 159.552 30.9305 159.931 30.4349C160.339 29.9393 160.514 29.1813 160.514 28.2193C160.514 27.8111 160.484 27.4613 160.426 27.1115C160.339 26.7908 160.251 26.4993 160.105 26.2952C159.931 26.062 159.756 25.8871 159.522 25.7413C159.289 25.6247 158.998 25.5664 158.648 25.5664ZM167.16 32.0966C166.985 32.1549 166.811 32.184 166.636 32.2132C166.461 32.2132 166.286 32.2132 166.169 32.2132C165.265 32.2132 164.595 31.9216 164.128 31.2803C163.662 30.6681 163.4 29.6769 163.4 28.365C163.4 27.1115 163.662 26.1786 164.187 25.5372C164.712 24.8959 165.469 24.5752 166.461 24.5752C166.723 24.5752 166.956 24.6044 167.16 24.6335V21.7766H168.268V24.6627C168.443 24.6335 168.589 24.6044 168.735 24.6044C168.851 24.6044 168.997 24.5752 169.114 24.5752C170.076 24.5752 170.804 24.8667 171.271 25.4206C171.766 26.0037 172 26.9366 172 28.2193C172 28.8315 171.941 29.4145 171.796 29.881C171.679 30.3766 171.475 30.8139 171.242 31.1637C170.979 31.4844 170.659 31.7467 170.309 31.9508C169.959 32.1257 169.522 32.2132 169.055 32.2132C168.968 32.2132 168.851 32.2132 168.676 32.2132C168.501 32.184 168.356 32.1549 168.268 32.1257V34.9827H167.16V32.0966ZM168.91 25.5664C168.793 25.5664 168.676 25.5664 168.589 25.5664C168.501 25.5664 168.385 25.5955 168.239 25.6247V31.222C168.326 31.222 168.443 31.2511 168.56 31.2511C168.676 31.2511 168.822 31.2511 168.968 31.2511C169.58 31.2511 170.046 30.9888 170.367 30.464C170.688 29.9684 170.834 29.2105 170.834 28.2193C170.834 27.403 170.688 26.7325 170.425 26.2661C170.134 25.7996 169.609 25.5664 168.91 25.5664ZM166.432 31.2511C166.548 31.2511 166.665 31.2511 166.781 31.2511C166.898 31.222 167.044 31.222 167.16 31.1928V25.6247C167.044 25.5955 166.956 25.5664 166.84 25.5664C166.752 25.5664 166.606 25.5664 166.461 25.5664C165.878 25.5664 165.411 25.7705 165.061 26.2369C164.741 26.7033 164.566 27.403 164.566 28.365C164.566 28.7732 164.624 29.1813 164.682 29.5311C164.741 29.881 164.857 30.1725 165.032 30.4349C165.178 30.6972 165.382 30.9013 165.615 31.0471C165.848 31.1928 166.14 31.2511 166.432 31.2511ZM53.378 8.10402H54.1359L54.34 8.94944H54.3983C54.6315 8.59961 54.8939 8.36639 55.2437 8.19148C55.5644 8.01656 55.9725 7.9291 56.3807 7.9291C57.3136 7.9291 58.0132 8.19148 58.4797 8.74538C58.9169 9.29927 59.1502 10.2322 59.1502 11.4857C59.1502 12.0688 59.0627 12.5935 58.9169 13.0891C58.7712 13.5555 58.538 13.9637 58.2756 14.2844C57.9841 14.605 57.6634 14.8674 57.2553 15.0423C56.8763 15.2172 56.439 15.3047 55.9434 15.3047C55.5936 15.3047 55.3312 15.2755 55.1271 15.2464C54.923 15.2172 54.719 15.1298 54.4858 15.0423V17.9576H53.378V8.10402ZM56.1766 8.92029C55.7102 8.92029 55.3312 9.0369 55.0688 9.29927C54.7773 9.53249 54.6024 9.91148 54.4858 10.4071V13.9054C54.6607 14.0511 54.8356 14.1386 55.0688 14.2261C55.2729 14.2844 55.5644 14.3135 55.9142 14.3135C56.5556 14.3135 57.0512 14.0803 57.4302 13.5847C57.8092 13.1183 57.9841 12.3894 57.9841 11.4566C57.9841 11.0776 57.9549 10.7277 57.8966 10.4071C57.8383 10.0864 57.7217 9.82402 57.5759 9.61995C57.4302 9.38673 57.2553 9.21182 57.022 9.09521C56.7888 8.9786 56.5264 8.92029 56.1766 8.92029ZM60.5203 11.6315C60.5203 10.4362 60.7827 9.50334 61.3075 8.86199C61.8322 8.24978 62.5902 7.9291 63.5522 7.9291C64.0769 7.9291 64.5434 8.01656 64.9224 8.19148C65.3014 8.36639 65.622 8.59961 65.8844 8.92029C66.1176 9.27012 66.3217 9.6491 66.4383 10.1155C66.5549 10.5528 66.6132 11.0776 66.6132 11.6315C66.6132 12.7976 66.3508 13.7305 65.8261 14.3718C65.3014 14.984 64.5434 15.3047 63.5522 15.3047C63.0566 15.3047 62.5902 15.2172 62.2112 15.0423C61.8322 14.8674 61.5115 14.6342 61.2492 14.3135C61.0159 13.9928 60.8119 13.5847 60.6953 13.1183C60.5786 12.681 60.5203 12.1854 60.5203 11.6315ZM61.6573 11.6315C61.6573 11.9813 61.7156 12.3311 61.7739 12.6518C61.8322 12.9725 61.9488 13.264 62.0946 13.4972C62.2403 13.7596 62.4444 13.9345 62.6776 14.1094C62.94 14.2552 63.2315 14.3135 63.5522 14.3135C64.8349 14.3427 65.4471 13.4389 65.4471 11.6315C65.4471 11.2525 65.418 10.9027 65.3597 10.582C65.2722 10.2322 65.1847 9.96978 65.039 9.70741C64.8641 9.47419 64.6892 9.27012 64.4268 9.12436C64.1936 8.9786 63.902 8.92029 63.5522 8.92029C62.2986 8.89114 61.6573 9.79487 61.6573 11.6315ZM74.4261 16.9372H73.6973L73.4641 15.1298H68.2458L68.0417 16.9372H67.2837V14.1677H68.1C68.1875 14.0511 68.2749 13.8762 68.3915 13.5847C68.5081 13.3223 68.6247 12.9433 68.7414 12.4769C68.858 11.9813 68.9746 11.3983 69.062 10.6694C69.1495 9.94063 69.2078 9.09521 69.2078 8.10402H73.4058V14.1677H74.4261V16.9372ZM72.298 14.1677V9.06605H70.2281C70.199 9.47419 70.1698 9.91148 70.1115 10.3779C70.0824 10.8444 70.0241 11.3108 69.9366 11.7772C69.8492 12.2437 69.7617 12.681 69.6451 13.0891C69.4993 13.4972 69.3827 13.8471 69.2078 14.1677H72.298ZM75.8254 8.10402C76.1461 8.10402 76.4668 8.07487 76.8458 8.04571C77.1956 8.01656 77.6329 7.98741 78.1576 7.98741C79.0905 7.98741 79.7319 8.13317 80.14 8.4247C80.5481 8.71622 80.7522 9.15351 80.7522 9.73656C80.7522 10.0572 80.6356 10.3779 80.4607 10.6986C80.2566 11.0193 79.9651 11.2525 79.5278 11.3983V11.4566C80.0525 11.544 80.4607 11.7481 80.6647 12.0396C80.898 12.302 81.0146 12.681 81.0146 13.1474C81.0146 13.8762 80.7522 14.4301 80.2275 14.7508C79.7027 15.0715 78.9156 15.2464 77.8953 15.2464C77.4871 15.2464 77.1373 15.2172 76.8166 15.2172C76.4668 15.1881 76.1461 15.1589 75.8254 15.1298V8.10402ZM76.9332 14.1969C77.1081 14.2261 77.2831 14.2261 77.458 14.2261C77.6329 14.2552 77.8369 14.2552 78.041 14.2552C78.6824 14.2552 79.1488 14.1677 79.4403 13.9928C79.7319 13.8179 79.9068 13.4972 79.9068 13.06C79.9068 12.7393 79.761 12.4477 79.4986 12.2437C79.2654 12.0396 78.799 11.923 78.1576 11.923H76.9332V14.1969ZM78.3034 11.0776C78.4492 11.0776 78.6241 11.0484 78.7698 10.9901C78.9447 10.9318 79.0905 10.8444 79.2071 10.7569C79.3237 10.6403 79.4403 10.5237 79.4986 10.4071C79.5861 10.2613 79.6153 10.1447 79.6153 9.96978C79.6153 9.61995 79.5278 9.35758 79.2946 9.21182C79.0614 9.06605 78.6824 8.9786 78.1285 8.9786C77.8369 8.9786 77.6037 8.9786 77.4288 9.00775C77.2539 9.00775 77.079 9.00775 76.9332 9.0369V11.0776H78.3034ZM87.1075 10.961L87.1366 10.0864H87.1075L86.5244 10.9901L83.4051 15.1298H82.7637V8.10402H83.8715V12.3894L83.8424 13.2349H83.9007L84.4254 12.3603L87.5739 8.10402H88.2153V15.1298H87.1075V10.961ZM92.6173 12.0396L90.5766 15.1298H89.2939L91.5095 11.923L91.9759 11.4857L91.2763 10.961L89.4688 8.10402H90.6349L92.559 11.1359H93.2878V8.10402H94.3664V11.2816L95.0369 11.0776L96.961 8.10402H98.1271L96.2322 10.961L95.7075 11.3983L96.4071 11.9813L98.477 15.1298H97.1359L95.0953 11.9813H94.3664V15.1298H93.2878V11.8355L92.6173 12.0396ZM104.512 14.5759C104.249 14.8091 103.899 14.984 103.462 15.1006C103.054 15.2464 102.587 15.3047 102.121 15.3047C101.596 15.3047 101.13 15.2172 100.751 15.0423C100.343 14.8674 100.022 14.6342 99.7888 14.3135C99.5264 13.9928 99.3515 13.5847 99.2349 13.1474C99.1183 12.681 99.06 12.1854 99.06 11.6315C99.06 10.4071 99.3224 9.50334 99.8471 8.86199C100.372 8.24978 101.13 7.9291 102.121 7.9291C102.413 7.9291 102.733 7.95826 103.054 8.01656C103.375 8.10402 103.666 8.24978 103.899 8.4247C104.162 8.62877 104.366 8.92029 104.512 9.27012C104.686 9.61995 104.745 10.1155 104.745 10.6986C104.745 11.0193 104.716 11.3691 104.686 11.7189H100.197C100.197 12.1562 100.255 12.5061 100.343 12.8267C100.401 13.1474 100.547 13.4098 100.722 13.643C100.897 13.8471 101.13 14.022 101.421 14.1386C101.684 14.2552 102.034 14.3135 102.442 14.3135C102.762 14.3135 103.083 14.2552 103.404 14.1677C103.695 14.0511 103.958 13.9054 104.103 13.7596L104.512 14.5759ZM102.121 8.92029C101.567 8.92029 101.13 9.06605 100.809 9.35758C100.488 9.6491 100.284 10.1447 100.226 10.8444H103.666C103.666 10.1155 103.549 9.61995 103.258 9.32843C102.996 9.06605 102.617 8.92029 102.121 8.92029ZM110.779 12.0396H107.631V15.1298H106.523V8.10402H107.631V11.0484H110.779V8.10402H111.887V15.1298H110.779V12.0396ZM118.359 10.961L118.417 10.0864H118.359L117.805 10.9901L114.657 15.1298H114.015V8.10402H115.152V12.3894L115.094 13.2349H115.152L115.706 12.3603L118.825 8.10402H119.496V15.1298H118.359V10.961ZM126.697 14.5759C126.434 14.8091 126.084 14.984 125.647 15.1006C125.239 15.2464 124.802 15.3047 124.306 15.3047C123.781 15.3047 123.315 15.2172 122.936 15.0423C122.557 14.8674 122.236 14.6342 121.974 14.3135C121.712 13.9928 121.537 13.5847 121.42 13.1474C121.303 12.681 121.245 12.1854 121.245 11.6315C121.245 10.4071 121.507 9.50334 122.032 8.86199C122.557 8.24978 123.315 7.9291 124.306 7.9291C124.627 7.9291 124.918 7.95826 125.239 8.01656C125.56 8.10402 125.851 8.24978 126.084 8.4247C126.347 8.62877 126.551 8.92029 126.697 9.27012C126.872 9.61995 126.959 10.1155 126.959 10.6986C126.959 11.0193 126.93 11.3691 126.872 11.7189H122.382C122.382 12.1562 122.44 12.5061 122.528 12.8267C122.615 13.1474 122.732 13.4098 122.907 13.643C123.082 13.8471 123.315 14.022 123.606 14.1386C123.869 14.2552 124.219 14.3135 124.627 14.3135C124.947 14.3135 125.268 14.2552 125.589 14.1677C125.909 14.0511 126.143 13.9054 126.288 13.7596L126.697 14.5759ZM124.306 8.92029C123.781 8.92029 123.315 9.06605 122.994 9.35758C122.674 9.6491 122.469 10.1447 122.411 10.8444H125.851C125.851 10.1155 125.735 9.61995 125.443 9.32843C125.181 9.06605 124.802 8.92029 124.306 8.92029ZM137.162 14.6633C136.871 14.8966 136.55 15.0423 136.171 15.1589C135.792 15.2464 135.384 15.3047 134.976 15.3047C134.451 15.3047 133.985 15.2172 133.606 15.0423C133.256 14.8674 132.935 14.6342 132.702 14.3135C132.469 13.9928 132.294 13.5847 132.177 13.1183C132.09 12.681 132.032 12.1854 132.032 11.6315C132.032 10.4362 132.294 9.50334 132.819 8.86199C133.314 8.24978 134.072 7.9291 135.034 7.9291C135.501 7.9291 135.88 7.95826 136.171 8.01656C136.492 8.10402 136.783 8.19148 137.017 8.33724L136.696 9.29927C136.492 9.18266 136.259 9.09521 135.996 9.00775C135.734 8.94944 135.442 8.92029 135.151 8.92029C133.839 8.92029 133.168 9.82402 133.168 11.6315C133.168 11.9813 133.227 12.302 133.285 12.6518C133.343 12.9725 133.46 13.264 133.635 13.4972C133.81 13.7596 134.014 13.9345 134.276 14.1094C134.539 14.2552 134.859 14.3135 135.267 14.3135C135.588 14.3135 135.88 14.2844 136.142 14.1677C136.434 14.0511 136.638 13.9345 136.813 13.8179L137.162 14.6633ZM138.591 8.62877C138.941 8.39555 139.349 8.24978 139.815 8.13317C140.282 8.04571 140.777 7.98741 141.273 7.98741C141.768 7.98741 142.147 8.04571 142.439 8.19148C142.731 8.30809 142.964 8.483 143.109 8.68707C143.255 8.89114 143.372 9.12436 143.43 9.38673C143.459 9.6491 143.488 9.91148 143.488 10.1447C143.488 10.7277 143.488 11.2525 143.459 11.8064C143.43 12.3311 143.401 12.8559 143.401 13.3223C143.401 13.6722 143.43 13.9928 143.459 14.3135C143.488 14.605 143.547 14.8966 143.605 15.1589H142.789L142.497 14.1969H142.439C142.352 14.3135 142.235 14.4301 142.118 14.5759C142.002 14.6925 141.827 14.8091 141.652 14.8966C141.477 15.0132 141.273 15.1006 141.04 15.1589C140.806 15.2172 140.544 15.2464 140.253 15.2464C139.961 15.2464 139.669 15.2172 139.436 15.1006C139.174 15.0132 138.941 14.8966 138.766 14.7216C138.591 14.5467 138.445 14.3135 138.328 14.0803C138.212 13.8471 138.154 13.5555 138.154 13.264C138.154 12.8267 138.241 12.5061 138.416 12.2145C138.591 11.9522 138.824 11.7189 139.116 11.544C139.407 11.3983 139.786 11.2816 140.194 11.1942C140.632 11.1359 141.098 11.1067 141.594 11.1067C141.739 11.1067 141.856 11.1067 142.002 11.1067C142.118 11.1067 142.235 11.1067 142.381 11.1359C142.41 10.8444 142.41 10.582 142.41 10.3488C142.41 9.85317 142.322 9.47419 142.118 9.27012C141.914 9.06605 141.535 8.9786 140.981 8.9786C140.836 8.9786 140.661 8.9786 140.486 9.00775C140.311 9.0369 140.107 9.06605 139.932 9.09521C139.728 9.15351 139.553 9.21182 139.378 9.27012C139.203 9.32843 139.057 9.38673 138.941 9.47419L138.591 8.62877ZM140.573 14.2552C140.806 14.2552 141.04 14.2261 141.244 14.1677C141.448 14.0803 141.623 13.9928 141.798 13.9054C141.943 13.7888 142.06 13.6722 142.147 13.5264C142.264 13.4098 142.322 13.264 142.381 13.1474V11.9813C142.235 11.9813 142.118 11.9813 141.973 11.9522C141.827 11.9522 141.71 11.9522 141.564 11.9522C141.302 11.9522 141.011 11.9813 140.748 12.0105C140.457 12.0396 140.223 12.0979 140.019 12.1854C139.815 12.2728 139.64 12.3894 139.524 12.5644C139.378 12.7101 139.32 12.9142 139.32 13.1474C139.32 13.4681 139.436 13.7305 139.669 13.9637C139.903 14.1677 140.194 14.2552 140.573 14.2552ZM149.931 10.961L149.989 10.0864H149.931L149.377 10.9901L146.229 15.1298H145.587V8.10402H146.724V12.3894L146.666 13.2349H146.724L147.278 12.3603L150.398 8.10402H151.068V15.1298H149.931V10.961ZM147.191 5.24707C147.307 5.68436 147.453 5.97588 147.686 6.1508C147.92 6.32571 148.182 6.41317 148.474 6.41317C148.765 6.41317 149.027 6.32571 149.261 6.12165C149.494 5.94673 149.64 5.65521 149.727 5.24707L150.573 5.5386C150.485 6.06334 150.252 6.50063 149.844 6.79216C149.465 7.08368 148.998 7.22944 148.444 7.22944C148.182 7.22944 147.949 7.20029 147.686 7.11283C147.453 7.05453 147.22 6.96707 147.045 6.82131C146.841 6.7047 146.666 6.52978 146.52 6.32571C146.404 6.12165 146.287 5.85927 146.258 5.5969L147.191 5.24707ZM157.627 9.06605H155.47V15.1298H154.333V9.06605H152.147V8.10402H157.627V9.06605ZM158.123 11.6315C158.123 10.4362 158.385 9.50334 158.91 8.86199C159.435 8.24978 160.193 7.9291 161.184 7.9291C161.709 7.9291 162.146 8.01656 162.525 8.19148C162.933 8.36639 163.225 8.59961 163.487 8.92029C163.749 9.27012 163.924 9.6491 164.041 10.1155C164.158 10.5528 164.216 11.0776 164.216 11.6315C164.216 12.7976 163.954 13.7305 163.429 14.3718C162.904 14.984 162.175 15.3047 161.184 15.3047C160.659 15.3047 160.193 15.2172 159.814 15.0423C159.435 14.8674 159.114 14.6342 158.881 14.3135C158.619 13.9928 158.444 13.5847 158.298 13.1183C158.181 12.681 158.123 12.1854 158.123 11.6315ZM159.289 11.6315C159.289 11.9813 159.318 12.3311 159.377 12.6518C159.464 12.9725 159.581 13.264 159.726 13.4972C159.872 13.7596 160.047 13.9345 160.309 14.1094C160.543 14.2552 160.834 14.3135 161.184 14.3135C162.438 14.3427 163.079 13.4389 163.079 11.6315C163.079 11.2525 163.05 10.9027 162.962 10.582C162.904 10.2322 162.787 9.96978 162.642 9.70741C162.496 9.47419 162.292 9.27012 162.059 9.12436C161.825 8.9786 161.534 8.92029 161.184 8.92029C159.901 8.89114 159.289 9.79487 159.289 11.6315ZM165.994 8.10402C166.315 8.10402 166.636 8.07487 167.015 8.04571C167.364 8.01656 167.802 7.98741 168.326 7.98741C169.259 7.98741 169.901 8.13317 170.309 8.4247C170.717 8.71622 170.921 9.15351 170.921 9.73656C170.921 10.0572 170.804 10.3779 170.629 10.6986C170.425 11.0193 170.105 11.2525 169.697 11.3983V11.4566C170.221 11.544 170.629 11.7481 170.834 12.0396C171.067 12.302 171.183 12.681 171.183 13.1474C171.183 13.8762 170.921 14.4301 170.396 14.7508C169.872 15.0715 169.084 15.2464 168.064 15.2464C167.656 15.2464 167.306 15.2172 166.956 15.2172C166.636 15.1881 166.315 15.1589 165.994 15.1298V8.10402ZM167.102 14.1969C167.277 14.2261 167.452 14.2261 167.627 14.2261C167.802 14.2552 167.977 14.2552 168.21 14.2552C168.851 14.2552 169.318 14.1677 169.609 13.9928C169.901 13.8179 170.046 13.4972 170.046 13.06C170.046 12.7393 169.93 12.4477 169.667 12.2437C169.434 12.0396 168.968 11.923 168.326 11.923H167.102V14.1969ZM168.472 11.0776C168.618 11.0776 168.793 11.0484 168.939 10.9901C169.114 10.9318 169.259 10.8444 169.376 10.7569C169.493 10.6403 169.609 10.5237 169.667 10.4071C169.755 10.2613 169.784 10.1447 169.784 9.96978C169.784 9.61995 169.697 9.35758 169.463 9.21182C169.23 9.06605 168.851 8.9786 168.297 8.9786C168.006 8.9786 167.773 8.9786 167.598 9.00775C167.423 9.00775 167.248 9.00775 167.102 9.0369V11.0776H168.472Z" fill="white" fill-opacity="0.3"/>
</svg>
