<svg width="65" height="12" viewBox="0 0 65 12" fill="none" xmlns="http://www.w3.org/2000/svg">
<g clip-path="url(#clip0)">
<path fill-rule="evenodd" clip-rule="evenodd" d="M3.43555 10.7474L6.89464 4.74901L5.71495 9.24783L10.3137 9.91765L3.43555 10.7474ZM9.46396 1.58984L12.923 7.57827L9.62392 4.30913L6.74468 7.95817L9.46396 1.58984ZM14.3827 11.3873H7.46449L11.9433 10.1676L10.2338 5.84872L14.3827 11.3873Z" fill="white"/>
<path fill-rule="evenodd" clip-rule="evenodd" d="M7.14447 1.07972L6.80456 1.59958L7.30442 2.18942L6.98451 2.68929L5.15499 0.509866L5.4849 0L8.22418 0.779795L7.89427 1.28966L7.14447 1.07972ZM2.22576 9.98737L0.00634766 8.53775C0.106321 8.30781 0.216292 8.09787 0.356255 7.88792C0.826132 7.14812 1.47596 6.94817 2.21577 7.42804C2.55568 7.65798 2.8256 7.92791 2.91558 8.3478C2.98556 8.7377 2.8256 9.13759 2.61566 9.46751C2.49569 9.65746 2.37572 9.81741 2.22576 9.98737ZM0.686169 8.29781L2.15578 9.24756C2.18577 9.20757 2.21577 9.16758 2.24576 9.1276C2.56567 8.62773 2.36573 8.23783 1.90585 7.93791C1.47596 7.65798 1.07607 7.67798 0.786142 8.12786C0.776145 8.13786 0.686169 8.29781 0.686169 8.29781ZM2.18577 6.02841L2.63565 6.32833L3.11553 5.57853L3.54542 5.85846L3.06554 6.59826L3.6054 6.94817L4.14526 6.11839L4.57514 6.39831L3.72537 7.71797L1.43597 6.23836L2.26575 4.96869L2.69564 5.24862L2.18577 6.02841ZM4.84507 5.03867L5.37493 4.21889L5.80482 4.50881L4.96504 5.80847L2.68564 4.31886L2.99556 3.83899L4.84507 5.03867ZM4.67512 2.20942L6.52463 3.3991L6.20471 3.88898L4.3652 2.68929L3.9953 3.25914L3.55541 2.97922L4.61513 1.34964L5.04502 1.62957L4.67512 2.20942ZM6.45465 1.23967L6.66459 0.90976C6.45465 0.849776 6.22471 0.789792 6.01476 0.71981C6.16473 0.879768 6.31469 1.06972 6.45465 1.23967Z" fill="white"/>
<path d="M19.3315 9.00734L19.3415 8.70742H19.3315L19.1315 9.01734L18.0518 10.427H17.8319V8.0276H18.2118V9.48722L18.2018 9.76714H18.2218L18.4117 9.47722L19.4815 8.0276H19.7114V10.427H19.3315V9.00734ZM15.3525 1.88922C15.4725 1.85923 15.6025 1.83923 15.7424 1.82923C15.8924 1.81924 16.0224 1.81924 16.1623 1.81924C16.3123 1.81924 16.4622 1.82923 16.6122 1.85923C16.7622 1.88922 16.9021 1.93921 17.0321 2.01918C17.1521 2.09916 17.252 2.19914 17.332 2.3391C17.412 2.46907 17.452 2.63902 17.452 2.84897C17.452 3.04891 17.412 3.22887 17.342 3.36883C17.262 3.50879 17.1721 3.61876 17.0421 3.70874C16.9221 3.79872 16.7822 3.8587 16.6322 3.89869C16.4722 3.93868 16.3123 3.95867 16.1423 3.95867C16.1323 3.95867 16.1023 3.95867 16.0624 3.95867C16.0324 3.95867 15.9924 3.95867 15.9524 3.94868C15.9124 3.94868 15.8724 3.94868 15.8324 3.94868C15.7924 3.93868 15.7724 3.93868 15.7524 3.93868V5.20834H15.3525V1.88922ZM16.1723 2.15915C16.0923 2.15915 16.0124 2.15915 15.9324 2.16914C15.8524 2.16914 15.7924 2.17914 15.7524 2.18914V3.57877C15.7724 3.58877 15.7924 3.58877 15.8324 3.58877C15.8624 3.59877 15.9024 3.59877 15.9424 3.59877C15.9724 3.59877 16.0124 3.59877 16.0524 3.59877C16.0823 3.59877 16.1123 3.59877 16.1223 3.59877C16.2323 3.59877 16.3423 3.58877 16.4522 3.56878C16.5522 3.54878 16.6522 3.50879 16.7422 3.4588C16.8222 3.39882 16.8921 3.32884 16.9521 3.22887C17.0021 3.12889 17.0321 2.99893 17.0321 2.84897C17.0321 2.719 17.0021 2.60903 16.9521 2.51905C16.9021 2.42908 16.8421 2.35909 16.7522 2.30911C16.6722 2.25912 16.5822 2.21913 16.4822 2.19914C16.3823 2.16914 16.2723 2.15915 16.1723 2.15915ZM17.7919 2.98893C17.9119 2.91895 18.0618 2.85896 18.2218 2.82897C18.3817 2.78898 18.5517 2.77898 18.7217 2.77898C18.8916 2.77898 19.0216 2.79898 19.1215 2.83897C19.2315 2.88895 19.3015 2.94894 19.3515 3.01892C19.4115 3.0889 19.4415 3.16888 19.4615 3.25886C19.4815 3.33884 19.4914 3.42881 19.4914 3.51879C19.4914 3.70874 19.4815 3.88869 19.4715 4.07864C19.4615 4.25859 19.4615 4.42855 19.4615 4.5985C19.4615 4.70848 19.4615 4.82844 19.4715 4.92842C19.4815 5.03839 19.5014 5.12836 19.5314 5.21834H19.2415L19.1415 4.88843H19.1215C19.0916 4.92842 19.0516 4.9784 19.0116 5.01839C18.9716 5.05838 18.9116 5.09837 18.8516 5.12836C18.7916 5.16835 18.7217 5.19835 18.6417 5.21834C18.5617 5.23834 18.4717 5.24833 18.3717 5.24833C18.2718 5.24833 18.1718 5.23834 18.0818 5.19835C18.0018 5.16835 17.9219 5.12836 17.8619 5.06838C17.7919 5.0084 17.7419 4.93841 17.7019 4.84844C17.6719 4.76846 17.6519 4.67848 17.6519 4.56851C17.6519 4.42855 17.6819 4.30858 17.7419 4.2186C17.7919 4.11863 17.8719 4.04865 17.9818 3.98867C18.0818 3.93868 18.2118 3.89869 18.3517 3.8687C18.5017 3.8487 18.6617 3.8387 18.8316 3.8387C18.8816 3.8387 18.9216 3.8387 18.9716 3.8387C19.0116 3.8387 19.0516 3.8387 19.1016 3.8487C19.1115 3.74873 19.1115 3.65875 19.1115 3.58877C19.1115 3.40882 19.0816 3.28885 19.0116 3.21887C18.9416 3.14889 18.8116 3.1089 18.6217 3.1089C18.5717 3.1089 18.5117 3.11889 18.4517 3.11889C18.3917 3.12889 18.3218 3.13889 18.2618 3.15888C18.1918 3.16888 18.1318 3.18888 18.0718 3.20887C18.0118 3.22887 17.9619 3.25886 17.9119 3.28885L17.7919 2.98893ZM18.4717 4.91842C18.5617 4.91842 18.6417 4.89843 18.7117 4.87843C18.7816 4.85844 18.8516 4.82844 18.9016 4.78845C18.9516 4.74846 18.9916 4.70848 19.0216 4.66849C19.0616 4.6185 19.0816 4.57851 19.1016 4.53852V4.13863C19.0516 4.13863 19.0116 4.12863 18.9616 4.12863C18.9116 4.12863 18.8716 4.12863 18.8216 4.12863C18.7316 4.12863 18.6317 4.13863 18.5317 4.14862C18.4417 4.15862 18.3617 4.17862 18.2818 4.20861C18.2118 4.2386 18.1618 4.27859 18.1118 4.32858C18.0718 4.38856 18.0518 4.44854 18.0518 4.52852C18.0518 4.63849 18.0918 4.73847 18.1718 4.80845C18.2518 4.87843 18.3517 4.91842 18.4717 4.91842ZM20.4412 4.13863V3.82871H20.7811C20.8311 3.82871 20.8911 3.81871 20.9511 3.79872C21.0011 3.77872 21.051 3.75873 21.101 3.71874C21.141 3.68874 21.181 3.64875 21.211 3.59877C21.231 3.55878 21.251 3.50879 21.251 3.4588C21.251 3.32884 21.201 3.24886 21.121 3.18888C21.031 3.13889 20.9011 3.11889 20.7311 3.11889C20.6012 3.11889 20.4912 3.13889 20.3912 3.16888C20.2812 3.20887 20.2013 3.24886 20.1413 3.27885L20.0313 2.98893C20.1313 2.92894 20.2413 2.88895 20.3712 2.83897C20.5012 2.79898 20.6611 2.77898 20.8311 2.77898C21.371 2.77898 21.6309 2.97893 21.6309 3.36883C21.6309 3.4788 21.6009 3.58877 21.5209 3.69874C21.4509 3.80871 21.351 3.87869 21.211 3.92868V3.94868C21.4009 3.97867 21.5309 4.04865 21.6109 4.14862C21.6809 4.2486 21.7209 4.37856 21.7209 4.53852C21.7209 4.63849 21.7009 4.73847 21.6609 4.82844C21.6209 4.90842 21.5609 4.9884 21.4709 5.04839C21.3909 5.10837 21.281 5.16835 21.161 5.19835C21.031 5.23834 20.8911 5.25833 20.7211 5.25833C20.5612 5.25833 20.4212 5.23834 20.3112 5.20834C20.2113 5.18835 20.1113 5.14836 20.0213 5.10837L20.1313 4.78845C20.2113 4.82844 20.3012 4.86843 20.4012 4.88843C20.5012 4.90842 20.6212 4.91842 20.7411 4.91842C20.9311 4.91842 21.081 4.88843 21.191 4.81845C21.291 4.74846 21.341 4.64849 21.341 4.50853C21.341 4.39856 21.291 4.30858 21.191 4.2386C21.101 4.17862 20.9411 4.13863 20.7211 4.13863H20.4412ZM22.3307 2.81897H22.5906L22.6606 3.0989H22.6806C22.7606 2.98893 22.8506 2.90895 22.9705 2.84897C23.0805 2.78898 23.2205 2.75899 23.3704 2.75899C23.6903 2.75899 23.9303 2.84897 24.0802 3.03892C24.2402 3.22887 24.3202 3.53878 24.3202 3.96867C24.3202 4.16862 24.2902 4.34857 24.2402 4.50853C24.1902 4.66849 24.1102 4.80845 24.0203 4.91842C23.9203 5.02839 23.8003 5.11837 23.6703 5.17835C23.5304 5.23834 23.3804 5.26833 23.2105 5.26833C23.1005 5.26833 23.0005 5.25833 22.9305 5.24833C22.8706 5.23834 22.7906 5.20834 22.7106 5.17835V6.16809H22.3307V2.81897ZM23.3004 3.0889C23.1305 3.0889 23.0005 3.13889 22.9105 3.21887C22.8206 3.30884 22.7506 3.42881 22.7106 3.60877V4.79845C22.7706 4.83844 22.8306 4.87843 22.9105 4.89843C22.9805 4.91842 23.0805 4.93841 23.2005 4.93841C23.4204 4.93841 23.6004 4.84844 23.7303 4.68848C23.8503 4.51853 23.9203 4.27859 23.9203 3.95867C23.9203 3.82871 23.9103 3.70874 23.8903 3.59877C23.8603 3.49879 23.8303 3.40882 23.7803 3.32884C23.7303 3.25886 23.6604 3.19887 23.5904 3.15888C23.5104 3.1089 23.4104 3.0889 23.3004 3.0889ZM24.88 2.98893C25.01 2.91895 25.15 2.85896 25.3099 2.82897C25.4699 2.78898 25.6398 2.77898 25.8098 2.77898C25.9797 2.77898 26.1097 2.79898 26.2197 2.83897C26.3196 2.88895 26.3896 2.94894 26.4496 3.01892C26.4996 3.0889 26.5296 3.16888 26.5496 3.25886C26.5696 3.33884 26.5796 3.42881 26.5796 3.51879C26.5796 3.70874 26.5696 3.88869 26.5596 4.07864C26.5496 4.25859 26.5496 4.42855 26.5496 4.5985C26.5496 4.70848 26.5496 4.82844 26.5596 4.92842C26.5696 5.03839 26.5896 5.12836 26.6196 5.21834H26.3296L26.2297 4.88843H26.2097C26.1797 4.92842 26.1397 4.9784 26.0997 5.01839C26.0597 5.05838 26.0097 5.09837 25.9397 5.12836C25.8798 5.16835 25.8098 5.19835 25.7298 5.21834C25.6498 5.23834 25.5598 5.24833 25.4599 5.24833C25.3599 5.24833 25.2599 5.23834 25.17 5.19835C25.09 5.16835 25.01 5.12836 24.95 5.06838C24.88 5.0084 24.83 4.93841 24.8 4.84844C24.7601 4.76846 24.7401 4.67848 24.7401 4.56851C24.7401 4.42855 24.7701 4.30858 24.83 4.2186C24.88 4.11863 24.96 4.04865 25.07 3.98867C25.17 3.93868 25.2999 3.89869 25.4399 3.8687C25.5898 3.8487 25.7498 3.8387 25.9298 3.8387C25.9697 3.8387 26.0097 3.8387 26.0597 3.8387C26.0997 3.8387 26.1397 3.8387 26.1897 3.8487C26.1997 3.74873 26.1997 3.65875 26.1997 3.58877C26.1997 3.40882 26.1697 3.28885 26.0997 3.21887C26.0297 3.14889 25.8998 3.1089 25.7098 3.1089C25.6598 3.1089 25.5998 3.11889 25.5399 3.11889C25.4799 3.12889 25.4099 3.13889 25.3499 3.15888C25.2799 3.16888 25.2199 3.18888 25.16 3.20887C25.1 3.22887 25.05 3.25886 25 3.28885L24.88 2.98893ZM25.5698 4.91842C25.6498 4.91842 25.7298 4.89843 25.8098 4.87843C25.8798 4.85844 25.9397 4.82844 25.9897 4.78845C26.0397 4.74846 26.0797 4.70848 26.1097 4.66849C26.1497 4.6185 26.1697 4.57851 26.1897 4.53852V4.13863C26.1397 4.13863 26.0997 4.12863 26.0497 4.12863C26.0097 4.12863 25.9597 4.12863 25.9198 4.12863C25.8198 4.12863 25.7198 4.13863 25.6298 4.14862C25.5299 4.15862 25.4499 4.17862 25.3799 4.20861C25.2999 4.2386 25.2499 4.27859 25.1999 4.32858C25.16 4.38856 25.14 4.44854 25.14 4.52852C25.14 4.63849 25.1799 4.73847 25.2599 4.80845C25.3399 4.87843 25.4399 4.91842 25.5698 4.91842ZM27.5193 3.23886C27.6293 3.0889 27.7493 2.97893 27.8692 2.91895C27.9992 2.85896 28.1592 2.81897 28.3491 2.81897C28.649 2.81897 28.869 2.91895 29.0289 3.1089C29.1889 3.29885 29.2689 3.58877 29.2689 3.95867C29.2689 4.38856 29.1789 4.71847 28.9889 4.93841C28.809 5.15836 28.5491 5.26833 28.2191 5.26833C27.8692 5.26833 27.6093 5.14836 27.4294 4.90842C27.2594 4.65849 27.1694 4.27859 27.1694 3.75873C27.1694 3.4888 27.1794 3.24886 27.2094 3.05891C27.2394 2.85896 27.2794 2.699 27.3294 2.55904C27.3794 2.42908 27.4494 2.31911 27.5193 2.23913C27.5993 2.15915 27.6793 2.09916 27.7693 2.04918C27.8692 1.99919 27.9692 1.9692 28.0792 1.9492C28.1992 1.92921 28.3191 1.91921 28.4391 1.89922C28.609 1.88922 28.739 1.86922 28.839 1.84923C28.929 1.82923 29.0089 1.78924 29.0589 1.73926L29.1089 2.07917C29.0689 2.10916 29.0389 2.12916 28.9989 2.14915C28.959 2.16914 28.919 2.18914 28.859 2.19914C28.809 2.20913 28.739 2.22913 28.669 2.22913C28.5891 2.23913 28.4991 2.24912 28.4091 2.25912C28.2691 2.26912 28.1492 2.27912 28.0392 2.30911C27.9392 2.3291 27.8492 2.37909 27.7693 2.44907C27.6993 2.51905 27.6393 2.60903 27.5993 2.73899C27.5493 2.86896 27.5193 3.02892 27.5093 3.23886H27.5193ZM27.5693 4.01866C27.5693 4.13863 27.5793 4.25859 27.5993 4.36857C27.6293 4.47854 27.6693 4.57851 27.7193 4.65849C27.7693 4.74846 27.8392 4.81845 27.9292 4.85844C28.0092 4.90842 28.1092 4.93841 28.2191 4.93841C28.4391 4.93841 28.599 4.85844 28.709 4.69848C28.819 4.53852 28.869 4.30858 28.869 3.99866C28.869 3.8687 28.859 3.75873 28.839 3.65875C28.819 3.55878 28.779 3.4688 28.729 3.38882C28.679 3.31884 28.619 3.25886 28.5491 3.21887C28.4791 3.17888 28.3891 3.15888 28.2891 3.15888C28.0392 3.15888 27.8492 3.22887 27.7393 3.37883C27.6193 3.52879 27.5693 3.73873 27.5693 4.01866ZM29.7387 4.00866C29.7387 3.60877 29.8287 3.29885 30.0087 3.0789C30.1886 2.86896 30.4486 2.75899 30.7885 2.75899C30.9684 2.75899 31.1284 2.78898 31.2583 2.84897C31.3883 2.90895 31.4983 2.98893 31.5883 3.0989C31.6682 3.20887 31.7382 3.33884 31.7782 3.49879C31.8182 3.64875 31.8382 3.82871 31.8382 4.00866C31.8382 4.41855 31.7482 4.72847 31.5683 4.94841C31.3883 5.15836 31.1284 5.26833 30.7885 5.26833C30.6085 5.26833 30.4586 5.23834 30.3186 5.17835C30.1886 5.11837 30.0787 5.03839 29.9887 4.92842C29.9087 4.81845 29.8387 4.68848 29.7987 4.52852C29.7587 4.37856 29.7387 4.19861 29.7387 4.00866ZM30.1386 4.00866C30.1386 4.13863 30.1486 4.2486 30.1686 4.35857C30.1986 4.47854 30.2386 4.56851 30.2886 4.65849C30.3386 4.73847 30.3986 4.80845 30.4886 4.85844C30.5685 4.90842 30.6685 4.93841 30.7885 4.93841C31.2284 4.93841 31.4383 4.6285 31.4383 4.00866C31.4383 3.88869 31.4283 3.76872 31.4083 3.65875C31.3783 3.54878 31.3483 3.44881 31.2883 3.36883C31.2384 3.27885 31.1784 3.21887 31.0884 3.16888C31.0084 3.11889 30.9084 3.0889 30.7885 3.0889C30.3586 3.0889 30.1386 3.39882 30.1386 4.00866ZM33.8977 3.14889H33.1479V5.20834H32.758V3.14889H32.0082V2.81897H33.8977V3.14889ZM34.8774 4.12863H34.6575V5.20834H34.2776V2.81897H34.6575V3.89869L34.8674 3.82871L35.6372 2.81897H36.0471L35.3073 3.77872L35.1073 3.93868L35.3573 4.12863L36.1571 5.20834H35.6772L34.8774 4.12863ZM36.527 2.98893C36.6469 2.91895 36.7969 2.85896 36.9568 2.82897C37.1168 2.78898 37.2868 2.77898 37.4567 2.77898C37.6267 2.77898 37.7566 2.79898 37.8566 2.83897C37.9666 2.88895 38.0366 2.94894 38.0865 3.01892C38.1465 3.0889 38.1765 3.16888 38.1965 3.25886C38.2165 3.33884 38.2265 3.42881 38.2265 3.51879C38.2265 3.70874 38.2165 3.88869 38.2065 4.07864C38.1965 4.25859 38.1965 4.42855 38.1965 4.5985C38.1965 4.70848 38.1965 4.82844 38.2065 4.92842C38.2165 5.03839 38.2365 5.12836 38.2665 5.21834H37.9766L37.8766 4.88843H37.8566C37.8266 4.92842 37.7866 4.9784 37.7466 5.01839C37.7066 5.05838 37.6467 5.09837 37.5867 5.12836C37.5267 5.16835 37.4567 5.19835 37.3767 5.21834C37.2968 5.23834 37.2068 5.24833 37.1068 5.24833C37.0068 5.24833 36.9069 5.23834 36.8169 5.19835C36.7369 5.16835 36.6569 5.12836 36.5969 5.06838C36.527 5.0084 36.477 4.93841 36.437 4.84844C36.407 4.76846 36.387 4.67848 36.387 4.56851C36.387 4.42855 36.417 4.30858 36.477 4.2186C36.527 4.11863 36.6069 4.04865 36.7169 3.98867C36.8169 3.93868 36.9468 3.89869 37.0868 3.8687C37.2368 3.8487 37.3967 3.8387 37.5667 3.8387C37.6167 3.8387 37.6567 3.8387 37.7066 3.8387C37.7466 3.8387 37.7866 3.8387 37.8366 3.8487C37.8466 3.74873 37.8466 3.65875 37.8466 3.58877C37.8466 3.40882 37.8166 3.28885 37.7466 3.21887C37.6767 3.14889 37.5467 3.1089 37.3567 3.1089C37.3068 3.1089 37.2468 3.11889 37.1868 3.11889C37.1268 3.12889 37.0568 3.13889 36.9968 3.15888C36.9269 3.16888 36.8669 3.18888 36.8069 3.20887C36.7469 3.22887 36.6969 3.25886 36.6469 3.28885L36.527 2.98893ZM37.2068 4.91842C37.2968 4.91842 37.3767 4.89843 37.4467 4.87843C37.5167 4.85844 37.5867 4.82844 37.6367 4.78845C37.6867 4.74846 37.7266 4.70848 37.7566 4.66849C37.7966 4.6185 37.8166 4.57851 37.8366 4.53852V4.13863C37.7866 4.13863 37.7466 4.12863 37.6967 4.12863C37.6467 4.12863 37.6067 4.12863 37.5567 4.12863C37.4667 4.12863 37.3667 4.13863 37.2668 4.14862C37.1768 4.15862 37.0968 4.17862 37.0168 4.20861C36.9468 4.2386 36.8969 4.27859 36.8469 4.32858C36.8069 4.38856 36.7869 4.44854 36.7869 4.52852C36.7869 4.63849 36.8269 4.73847 36.9069 4.80845C36.9868 4.87843 37.0868 4.91842 37.2068 4.91842ZM23.1705 8.35751H22.1108V10.427H21.7309V8.0276H23.5604V10.427H23.1705V8.35751ZM24.3002 8.0276H24.5601L24.6301 8.31752H24.6501C24.7301 8.19756 24.82 8.11758 24.94 8.05759C25.05 7.99761 25.1899 7.96762 25.3399 7.96762C25.6598 7.96762 25.8998 8.06759 26.0497 8.24754C26.2097 8.43749 26.2897 8.74741 26.2897 9.1773C26.2897 9.37725 26.2597 9.5572 26.2097 9.71716C26.1597 9.88711 26.0797 10.0171 25.9897 10.127C25.8898 10.247 25.7698 10.327 25.6398 10.387C25.4999 10.447 25.3499 10.487 25.1799 10.487C25.07 10.487 24.97 10.477 24.9 10.457C24.84 10.447 24.7601 10.417 24.6801 10.387V11.3867H24.3002V8.0276ZM25.2699 8.30753C25.1 8.30753 24.97 8.34752 24.88 8.4275C24.7901 8.51747 24.7201 8.64744 24.6801 8.81739V10.0071C24.7401 10.0471 24.8 10.0871 24.88 10.1071C24.95 10.137 25.05 10.147 25.17 10.147C25.3899 10.147 25.5698 10.0671 25.6998 9.89711C25.8298 9.73715 25.8898 9.49721 25.8898 9.1773C25.8898 9.03733 25.8798 8.91737 25.8598 8.81739C25.8298 8.70742 25.7998 8.61745 25.7498 8.53747C25.6998 8.46749 25.6298 8.4075 25.5598 8.36751C25.4799 8.32752 25.3799 8.30753 25.2699 8.30753ZM26.7595 9.22728C26.7595 8.81739 26.8495 8.50747 27.0295 8.28753C27.2094 8.07759 27.4693 7.96762 27.8093 7.96762C27.9892 7.96762 28.1392 7.99761 28.2791 8.05759C28.4091 8.11758 28.5191 8.19756 28.609 8.30753C28.689 8.4175 28.759 8.55746 28.799 8.70742C28.839 8.86738 28.859 9.03733 28.859 9.22728C28.859 9.62718 28.769 9.9471 28.5891 10.157C28.4091 10.377 28.1492 10.487 27.8093 10.487C27.6293 10.487 27.4693 10.457 27.3394 10.397C27.2094 10.337 27.0994 10.247 27.0095 10.137C26.9295 10.0271 26.8595 9.89711 26.8195 9.73715C26.7795 9.58719 26.7595 9.41723 26.7595 9.22728ZM27.1594 9.22728C27.1594 9.34725 27.1694 9.46722 27.1894 9.57719C27.2194 9.68716 27.2494 9.78714 27.3094 9.86712C27.3594 9.9471 27.4194 10.0171 27.5093 10.0671C27.5893 10.1171 27.6893 10.147 27.8093 10.147C28.2391 10.147 28.4591 9.84712 28.4591 9.22728C28.4591 9.09732 28.4491 8.97735 28.4291 8.86738C28.3991 8.75741 28.3591 8.65744 28.3091 8.57746C28.2591 8.49748 28.1892 8.4275 28.1092 8.37751C28.0292 8.32752 27.9292 8.30753 27.8093 8.30753C27.3694 8.29753 27.1594 8.60745 27.1594 9.22728ZM31.5583 11.0368H31.2983L31.2284 10.427H29.4188L29.3489 11.0368H29.0889V10.0871H29.3688C29.3988 10.0571 29.4288 9.98708 29.4688 9.89711C29.5188 9.80713 29.5588 9.67717 29.5988 9.51721C29.6388 9.34725 29.6688 9.14731 29.6988 8.89737C29.7288 8.65744 29.7487 8.36751 29.7587 8.0276H31.2084V10.0871H31.5583V11.0368ZM30.8185 10.0871V8.35751H30.0987C30.0987 8.49748 30.0787 8.64744 30.0687 8.7974C30.0487 8.95736 30.0287 9.11731 29.9987 9.27727C29.9787 9.43723 29.9387 9.58719 29.8987 9.72715C29.8587 9.86712 29.8087 9.98708 29.7587 10.0871H30.8185ZM32.0281 8.0276C32.1381 8.0276 32.2581 8.0176 32.3781 8.00761C32.508 7.99761 32.658 7.98761 32.8379 7.98761C33.1578 7.98761 33.3878 8.0376 33.5178 8.13757C33.6577 8.23755 33.7277 8.38751 33.7277 8.58745C33.7277 8.69742 33.6977 8.8074 33.6277 8.90737C33.5677 9.01734 33.4578 9.09732 33.3078 9.14731V9.1673C33.4978 9.20729 33.6277 9.26727 33.7077 9.36725C33.7777 9.45722 33.8177 9.58719 33.8177 9.74715C33.8177 9.99708 33.7277 10.177 33.5477 10.287C33.3678 10.407 33.0979 10.457 32.748 10.457C32.608 10.457 32.488 10.457 32.3681 10.447C32.2581 10.437 32.1381 10.427 32.0281 10.417V8.0276ZM32.408 10.1071C32.478 10.1071 32.538 10.1171 32.588 10.1171C32.648 10.1171 32.718 10.127 32.7979 10.127C33.0179 10.127 33.1778 10.0871 33.2778 10.0271C33.3778 9.96709 33.4378 9.86712 33.4378 9.71716C33.4378 9.60718 33.3878 9.50721 33.2978 9.43723C33.2178 9.36725 33.0579 9.32726 32.8379 9.32726H32.408V10.1071ZM32.8879 9.03733C32.9379 9.03733 32.9979 9.02734 33.0479 9.00734C33.1079 8.98735 33.1578 8.96735 33.1978 8.92736C33.2378 8.89737 33.2778 8.85738 33.2978 8.81739C33.3278 8.76741 33.3478 8.71742 33.3478 8.66743C33.3478 8.53747 33.3078 8.44749 33.2278 8.4075C33.1479 8.35751 33.0179 8.32752 32.8279 8.32752C32.728 8.32752 32.638 8.32752 32.588 8.33752C32.528 8.33752 32.468 8.33752 32.408 8.34752V9.03733H32.8879ZM35.9171 9.00734L35.9371 8.70742H35.9171L35.7272 9.01734L34.6475 10.427H34.4275V8.0276H34.8074V9.48722L34.7874 9.76714H34.8074L34.9974 9.47722L36.0771 8.0276H36.307V10.427H35.9171V9.00734ZM37.8266 9.36725L37.1168 10.427H36.6769L37.4367 9.32726L37.5967 9.1773L37.3567 8.99735L36.7269 8.0276H37.1368L37.7966 9.05733H38.0466V8.0276H38.4265V9.10732L38.6464 9.04733L39.3162 8.0276H39.7161L39.0663 8.99735L38.8763 9.1573L39.1263 9.34725L39.8361 10.427H39.3762L38.6764 9.34725H38.4265V10.427H38.0466V9.29727L37.8266 9.36725ZM41.9155 10.237C41.8256 10.307 41.7056 10.367 41.5556 10.417C41.4157 10.457 41.2557 10.487 41.0958 10.487C40.9158 10.487 40.7558 10.457 40.6159 10.397C40.4859 10.337 40.3759 10.247 40.286 10.137C40.206 10.0271 40.136 9.89711 40.096 9.74715C40.056 9.58719 40.036 9.41723 40.036 9.22728C40.036 8.81739 40.126 8.50747 40.306 8.28753C40.4859 8.07759 40.7558 7.96762 41.0858 7.96762C41.1957 7.96762 41.3057 7.97761 41.4157 8.00761C41.5256 8.0276 41.6256 8.07759 41.7056 8.13757C41.7956 8.20755 41.8656 8.30753 41.9155 8.4275C41.9755 8.54746 42.0055 8.70742 42.0055 8.91737C42.0055 9.01734 41.9955 9.13731 41.9755 9.26727H40.4359C40.4359 9.40724 40.4459 9.52721 40.4759 9.63718C40.5059 9.74715 40.5459 9.83712 40.6059 9.9171C40.6759 9.98708 40.7458 10.0471 40.8458 10.0871C40.9458 10.127 41.0658 10.147 41.2057 10.147C41.3157 10.147 41.4257 10.127 41.5356 10.0871C41.6356 10.0471 41.7256 10.0071 41.7756 9.95709L41.9155 10.237ZM41.0958 8.30753C40.9058 8.30753 40.7558 8.35751 40.6459 8.45749C40.5259 8.54746 40.4559 8.71742 40.4359 8.95736H41.6256C41.6256 8.71742 41.5856 8.54746 41.4857 8.44749C41.3957 8.35751 41.2657 8.30753 41.0958 8.30753ZM44.075 9.36725H42.9853V10.427H42.6054V8.0276H42.9853V9.02734H44.075V8.0276H44.4549V10.427H44.075V9.36725ZM46.6943 9.00734L46.7043 8.70742H46.6943L46.4943 9.01734L45.4146 10.427H45.1947V8.0276H45.5746V9.48722L45.5646 9.76714H45.5846L45.7745 9.47722L46.8542 8.0276H47.0742V10.427H46.6943V9.00734ZM49.5635 10.237C49.4735 10.307 49.3536 10.367 49.2036 10.417C49.0537 10.457 48.9037 10.487 48.7437 10.487C48.5538 10.487 48.4038 10.457 48.2639 10.397C48.1339 10.337 48.0239 10.247 47.934 10.137C47.844 10.0271 47.784 9.89711 47.744 9.74715C47.704 9.58719 47.684 9.41723 47.684 9.22728C47.684 8.81739 47.774 8.50747 47.9539 8.28753C48.1339 8.07759 48.3938 7.96762 48.7337 7.96762C48.8437 7.96762 48.9537 7.97761 49.0637 8.00761C49.1736 8.0276 49.2636 8.07759 49.3536 8.13757C49.4436 8.20755 49.5135 8.30753 49.5635 8.4275C49.6235 8.54746 49.6435 8.70742 49.6435 8.91737C49.6435 9.01734 49.6335 9.13731 49.6135 9.26727H48.0739C48.0739 9.40724 48.0939 9.52721 48.1239 9.63718C48.1539 9.74715 48.1939 9.83712 48.2539 9.9171C48.3139 9.98708 48.3938 10.0471 48.4938 10.0871C48.5938 10.127 48.7137 10.147 48.8537 10.147C48.9637 10.147 49.0637 10.127 49.1736 10.0871C49.2836 10.0471 49.3636 10.0071 49.4236 9.95709L49.5635 10.237ZM48.7437 8.30753C48.5538 8.30753 48.4038 8.35751 48.2839 8.45749C48.1739 8.54746 48.1039 8.71742 48.0839 8.95736H49.2736C49.2736 8.71742 49.2236 8.54746 49.1336 8.44749C49.0437 8.35751 48.9137 8.30753 48.7437 8.30753ZM53.1726 10.267C53.0726 10.337 52.9626 10.387 52.8227 10.427C52.6927 10.467 52.5627 10.487 52.4128 10.487C52.2328 10.487 52.0729 10.457 51.9429 10.397C51.8129 10.337 51.713 10.247 51.633 10.137C51.553 10.0271 51.493 9.89711 51.453 9.73715C51.413 9.58719 51.393 9.41723 51.393 9.22728C51.393 8.81739 51.483 8.50747 51.663 8.28753C51.8429 8.07759 52.1029 7.96762 52.4428 7.96762C52.5927 7.96762 52.7227 7.97761 52.8327 8.00761C52.9326 8.0276 53.0326 8.06759 53.1226 8.10758L53.0126 8.43749C52.9326 8.3975 52.8527 8.36751 52.7627 8.33752C52.6727 8.31752 52.5827 8.30753 52.4728 8.30753C52.0229 8.30753 51.7929 8.60745 51.7929 9.22728C51.7929 9.34725 51.8029 9.46722 51.8329 9.57719C51.8529 9.68716 51.8929 9.77714 51.9529 9.86712C52.0029 9.9471 52.0829 10.0171 52.1728 10.0671C52.2628 10.1171 52.3728 10.147 52.5127 10.147C52.6227 10.147 52.7327 10.127 52.8227 10.0971C52.9126 10.0571 52.9826 10.0171 53.0426 9.97709L53.1726 10.267ZM53.6524 8.20755C53.7824 8.12757 53.9224 8.07759 54.0823 8.0376C54.2423 8.00761 54.4122 7.98761 54.5922 7.98761C54.7522 7.98761 54.8921 8.00761 54.9921 8.05759C55.0921 8.09758 55.1621 8.15757 55.222 8.22755C55.272 8.29753 55.302 8.37751 55.322 8.46749C55.342 8.55746 55.352 8.63744 55.352 8.72742C55.352 8.91737 55.342 9.10732 55.332 9.28727C55.322 9.46722 55.322 9.64717 55.322 9.80713C55.322 9.9271 55.322 10.0371 55.332 10.137C55.342 10.247 55.362 10.347 55.392 10.437H55.1021L55.0021 10.0971H54.9821C54.9521 10.147 54.9121 10.187 54.8721 10.227C54.8321 10.277 54.7822 10.307 54.7122 10.347C54.6522 10.377 54.5822 10.407 54.5022 10.427C54.4222 10.447 54.3323 10.467 54.2323 10.467C54.1323 10.467 54.0323 10.447 53.9424 10.417C53.8624 10.387 53.7824 10.337 53.7224 10.277C53.6524 10.217 53.6025 10.147 53.5725 10.0671C53.5325 9.97709 53.5125 9.88711 53.5125 9.77714C53.5125 9.63718 53.5425 9.52721 53.6025 9.42723C53.6524 9.33726 53.7424 9.25728 53.8424 9.20729C53.9424 9.14731 54.0723 9.10732 54.2123 9.08732C54.3623 9.05733 54.5222 9.04733 54.7022 9.04733C54.7422 9.04733 54.7822 9.04733 54.8321 9.04733C54.8721 9.04733 54.9121 9.04733 54.9621 9.05733C54.9721 8.95736 54.9721 8.87738 54.9721 8.7974C54.9721 8.62744 54.9421 8.49748 54.8721 8.4275C54.8021 8.35751 54.6722 8.32752 54.4822 8.32752C54.4322 8.32752 54.3723 8.32752 54.3123 8.33752C54.2523 8.34752 54.1823 8.35751 54.1223 8.36751C54.0523 8.38751 53.9924 8.4075 53.9324 8.4275C53.8724 8.44749 53.8224 8.46749 53.7724 8.49748L53.6524 8.20755ZM54.3423 10.127C54.4322 10.127 54.5122 10.1171 54.5822 10.0871C54.6522 10.0671 54.7122 10.0371 54.7622 9.99708C54.8121 9.96709 54.8521 9.9271 54.8921 9.87711C54.9221 9.83712 54.9421 9.78714 54.9621 9.74715V9.34725C54.9121 9.34725 54.8721 9.34725 54.8221 9.34725C54.7822 9.33726 54.7322 9.33726 54.6922 9.33726C54.5922 9.33726 54.4922 9.34725 54.4023 9.35725C54.3023 9.36725 54.2223 9.38724 54.1523 9.41723C54.0723 9.44723 54.0224 9.48722 53.9724 9.5472C53.9324 9.59719 53.9124 9.66717 53.9124 9.74715C53.9124 9.85712 53.9524 9.9471 54.0323 10.0171C54.1123 10.0871 54.2123 10.127 54.3423 10.127ZM57.5714 9.00734L57.5814 8.70742H57.5714L57.3715 9.01734L56.2918 10.427H56.0718V8.0276H56.4617V9.48722L56.4417 9.76714H56.4617L56.6517 9.47722L57.7314 8.0276H57.9513V10.427H57.5714V9.00734ZM56.6217 7.05786C56.6617 7.20782 56.7116 7.30779 56.7916 7.36777C56.8716 7.41776 56.9616 7.44775 57.0615 7.44775C57.1615 7.44775 57.2515 7.41776 57.3315 7.35778C57.4115 7.29779 57.4714 7.19782 57.5014 7.05786L57.7914 7.15783C57.7614 7.33778 57.6714 7.47775 57.5414 7.57772C57.4015 7.67769 57.2415 7.72768 57.0516 7.72768C56.9616 7.72768 56.8816 7.71768 56.7916 7.69769C56.7116 7.67769 56.6317 7.6377 56.5717 7.59771C56.5017 7.54773 56.4417 7.48774 56.3917 7.41776C56.3517 7.34778 56.3117 7.2678 56.3018 7.16783L56.6217 7.05786ZM60.2207 8.35751H59.4709V10.427H59.091V8.35751H58.3312V8.0276H60.2207V8.35751ZM60.3907 9.22728C60.3907 8.81739 60.4806 8.50747 60.6606 8.28753C60.8406 8.07759 61.1005 7.96762 61.4404 7.96762C61.6203 7.96762 61.7803 7.99761 61.9103 8.05759C62.0402 8.11758 62.1502 8.19756 62.2402 8.30753C62.3202 8.4175 62.3901 8.55746 62.4301 8.70742C62.4701 8.86738 62.4901 9.03733 62.4901 9.22728C62.4901 9.62718 62.4001 9.9471 62.2202 10.157C62.0402 10.377 61.7803 10.487 61.4404 10.487C61.2604 10.487 61.1105 10.457 60.9705 10.397C60.8406 10.337 60.7306 10.247 60.6406 10.137C60.5606 10.0271 60.4906 9.89711 60.4507 9.73715C60.4107 9.58719 60.3907 9.41723 60.3907 9.22728ZM60.7906 9.22728C60.7906 9.34725 60.8006 9.46722 60.8206 9.57719C60.8506 9.68716 60.8905 9.78714 60.9405 9.86712C60.9905 9.9471 61.0605 10.0171 61.1405 10.0671C61.2205 10.1171 61.3204 10.147 61.4404 10.147C61.8803 10.147 62.0902 9.84712 62.0902 9.22728C62.0902 9.09732 62.0802 8.97735 62.0602 8.86738C62.0302 8.75741 62.0002 8.65744 61.9503 8.57746C61.8903 8.49748 61.8303 8.4275 61.7403 8.37751C61.6603 8.32752 61.5604 8.30753 61.4404 8.30753C61.0105 8.29753 60.7906 8.60745 60.7906 9.22728ZM63.1 8.0276C63.2099 8.0276 63.3299 8.0176 63.4499 8.00761C63.5698 7.99761 63.7198 7.98761 63.9097 7.98761C64.2197 7.98761 64.4496 8.0376 64.5896 8.13757C64.7295 8.23755 64.7895 8.38751 64.7895 8.58745C64.7895 8.69742 64.7595 8.8074 64.6995 8.90737C64.6296 9.01734 64.5196 9.09732 64.3696 9.14731V9.1673C64.5596 9.20729 64.6895 9.26727 64.7695 9.36725C64.8495 9.45722 64.8895 9.58719 64.8895 9.74715C64.8895 9.99708 64.7995 10.177 64.6196 10.287C64.4396 10.407 64.1697 10.457 63.8098 10.457C63.6798 10.457 63.5498 10.457 63.4399 10.447C63.3199 10.437 63.2099 10.427 63.1 10.417V8.0276ZM63.4799 10.1071C63.5398 10.1071 63.5998 10.1171 63.6598 10.1171C63.7198 10.1171 63.7898 10.127 63.8698 10.127C64.0797 10.127 64.2397 10.0871 64.3496 10.0271C64.4496 9.96709 64.4996 9.86712 64.4996 9.71716C64.4996 9.60718 64.4596 9.50721 64.3696 9.43723C64.2796 9.36725 64.1297 9.32726 63.8997 9.32726H63.4799V10.1071ZM63.9497 9.03733C64.0097 9.03733 64.0597 9.02734 64.1197 9.00734C64.1697 8.98735 64.2197 8.96735 64.2597 8.92736C64.3096 8.89737 64.3396 8.85738 64.3696 8.81739C64.3996 8.76741 64.4096 8.71742 64.4096 8.66743C64.4096 8.53747 64.3696 8.44749 64.2996 8.4075C64.2197 8.35751 64.0797 8.32752 63.8898 8.32752C63.7898 8.32752 63.7098 8.32752 63.6498 8.33752C63.5898 8.33752 63.5298 8.33752 63.4799 8.34752V9.03733H63.9497Z" fill="white"/>
</g>
<defs>
<clipPath id="clip0">
<rect width="64.896" height="11.387" fill="white"/>
</clipPath>
</defs>
</svg>
