<svg width="19" height="20" viewBox="0 0 19 20" fill="none" xmlns="http://www.w3.org/2000/svg">
<path d="M18.8357 18.365L14.2173 13.6622C15.4562 12.2118 16.2063 10.3196 16.2063 8.25136C16.2063 3.69874 12.5697 0 8.10313 0C3.63229 0 0 3.70303 0 8.25136C0 12.7997 3.6365 16.5027 8.10313 16.5027C10.1342 16.5027 11.9925 15.7389 13.4167 14.4774L18.035 19.1802C18.1446 19.2918 18.2921 19.3519 18.4354 19.3519C18.5786 19.3519 18.7261 19.2961 18.8357 19.1802C19.0548 18.9571 19.0548 18.5881 18.8357 18.365ZM1.13351 8.25136C1.13351 4.33808 4.26015 1.15854 8.09891 1.15854C11.9419 1.15854 15.0643 4.34237 15.0643 8.25136C15.0643 12.1603 11.9419 15.3485 8.09891 15.3485C4.26015 15.3485 1.13351 12.1646 1.13351 8.25136Z" fill="#1D407E"/>
</svg>
