<svg width="174" height="30" viewBox="0 0 174 30" fill="none" xmlns="http://www.w3.org/2000/svg">
<ellipse cx="158.647" cy="15" rx="15.3529" ry="15" fill="#D9D9D9"/>
<path d="M166.836 11.5421C166.836 10.1381 165.671 9 164.235 9H152.036C150.6 9 149.436 10.1381 149.436 11.5421V18.3579C149.436 19.7619 150.6 20.9 152.036 20.9H164.235C165.671 20.9 166.836 19.7619 166.836 18.3579V11.5421ZM156.396 17.8258V11.4234L161.365 14.6245L156.396 17.8258Z" fill="white"/>
<ellipse cx="122.824" cy="15" rx="15.3529" ry="15" fill="#D9D9D9"/>
<path d="M127.216 11.3638C126.847 11.3638 126.546 11.0699 126.546 10.7092V9.40015C126.546 9.0395 126.847 8.74561 127.216 8.74561H128.556C128.925 8.74561 129.226 9.0395 129.226 9.40015V10.7092C129.226 11.0699 128.925 11.3638 128.556 11.3638H127.216Z" fill="white"/>
<path d="M122.823 12.5273C122.341 12.5273 121.897 12.6655 121.514 12.8925C121.633 12.8562 121.757 12.8322 121.888 12.8322C122.597 12.8322 123.171 13.3932 123.171 14.0865C123.171 14.7779 122.597 15.3403 121.888 15.3403C121.179 15.3403 120.605 14.7786 120.605 14.0865C120.605 13.9575 120.631 13.8362 120.667 13.7201C120.434 14.0943 120.293 14.5289 120.293 14.9997C120.293 16.3663 121.425 17.4728 122.824 17.4728C124.221 17.4728 125.355 16.367 125.355 14.9997C125.355 13.6325 124.22 12.5273 122.823 12.5273Z" fill="white"/>
<path d="M122.824 11.4C124.859 11.4 126.509 13.0116 126.509 15C126.509 16.9884 124.858 18.6 122.824 18.6C120.79 18.6 119.139 16.9884 119.139 15C119.139 13.0116 120.79 11.4 122.824 11.4ZM122.824 10.2C120.115 10.2 117.911 12.3534 117.911 15C117.911 17.6466 120.115 19.8 122.824 19.8C125.533 19.8 127.737 17.6466 127.737 15C127.737 12.3534 125.533 10.2 122.824 10.2Z" fill="white"/>
<path d="M127.942 7H117.706C116.01 7 114.636 8.34277 114.636 10V20C114.636 21.6572 116.01 23 117.706 23H127.942C129.638 23 131.012 21.6572 131.012 20V10C131.012 8.34277 129.638 7 127.942 7ZM129.752 12.5385H125.635C126.235 13.1926 126.603 14.0529 126.603 15C126.603 17.0394 124.91 18.6923 122.824 18.6923C120.737 18.6923 119.045 17.0394 119.045 15C119.045 14.0529 119.413 13.192 120.013 12.5385H115.895V10C115.895 9.02462 116.708 8.23077 117.706 8.23077H127.942C128.941 8.23077 129.752 9.02462 129.752 10V12.5385Z" fill="white"/>
<ellipse cx="87.0004" cy="15" rx="15.3529" ry="15" fill="#D9D9D9"/>
<path d="M85.3424 18.224C83.9575 18.0851 82.7089 17.757 81.6399 16.9527C81.5072 16.8526 81.3703 16.7562 81.2492 16.6444C80.7813 16.2121 80.7342 15.7171 81.1044 15.2069C81.4212 14.7703 81.9529 14.6535 82.5055 14.9041C82.6126 14.9527 82.7145 15.0134 82.8122 15.0785C84.8045 16.3954 87.5414 16.4317 89.5412 15.1377C89.7394 14.9916 89.9511 14.8725 90.1966 14.8116C90.6739 14.6938 91.1189 14.8624 91.3751 15.2641C91.6677 15.7228 91.6639 16.1706 91.3034 16.5267C90.7504 17.0727 90.0853 17.4678 89.3463 17.7435C88.6475 18.0041 87.8821 18.1353 87.1246 18.2224C87.2389 18.3421 87.2928 18.4009 87.3643 18.47C88.3929 19.4641 89.426 20.4541 90.4512 21.4513C90.8005 21.7911 90.8735 22.2124 90.6812 22.6076C90.4709 23.0395 90.0002 23.3237 89.5386 23.2933C89.2462 23.2739 89.0181 23.1338 88.8155 22.9375C88.0393 22.1861 87.2484 21.4486 86.4879 20.6831C86.2666 20.4604 86.1601 20.5025 85.9648 20.6958C85.1839 21.4692 84.3903 22.2306 83.592 22.9877C83.2335 23.3277 82.8069 23.3889 82.3912 23.1947C81.9493 22.9886 81.6681 22.5547 81.6898 22.1186C81.7048 21.8237 81.8556 21.5984 82.0661 21.3963C83.084 20.4185 84.0992 19.4382 85.1147 18.4588C85.1819 18.3937 85.2445 18.3246 85.3424 18.224Z" fill="white"/>
<path d="M86.1899 14.7739C83.8013 14.7658 81.8426 12.7784 81.8565 10.3773C81.8703 7.94963 83.8302 5.9933 86.2424 6.00002C88.6594 6.00655 90.5995 7.99103 90.5873 10.4439C90.575 12.8401 88.6028 14.7823 86.1899 14.7739ZM88.3608 10.3831C88.3566 9.19086 87.4106 8.24174 86.225 8.24065C85.0295 8.23938 84.0749 9.20575 84.0842 10.4088C84.093 11.5965 85.0472 12.5389 86.236 12.5346C87.4212 12.5304 88.3647 11.5751 88.3608 10.3831Z" fill="white"/>
<ellipse cx="51.1762" cy="15" rx="15.3529" ry="15" fill="#D9D9D9"/>
<path d="M48.7413 9.90502C48.7413 10.283 48.7413 11.9702 48.7413 11.9702H47.082V14.4956H48.7413V22H52.1497V14.4958H54.4369C54.4369 14.4958 54.6511 13.2849 54.7549 11.9609C54.4572 11.9609 52.1626 11.9609 52.1626 11.9609C52.1626 11.9609 52.1626 10.4918 52.1626 10.2342C52.1626 9.97617 52.5342 9.62902 52.9015 9.62902C53.2681 9.62902 54.0418 9.62902 54.7585 9.62902C54.7585 9.2852 54.7585 8.09719 54.7585 7C53.8018 7 52.7134 7 52.2336 7C48.657 6.99983 48.7413 9.52768 48.7413 9.90502Z" fill="white"/>
<ellipse cx="15.3529" cy="15" rx="15.3529" ry="15" fill="#D9D9D9"/>
<path d="M23.443 20.144C23.4207 20.0977 23.3999 20.0593 23.3806 20.0285C23.0609 19.474 22.4501 18.7933 21.5484 17.9864L21.5294 17.9679L21.5198 17.9588L21.5102 17.9495H21.5005C21.0913 17.5738 20.8322 17.3211 20.7237 17.1918C20.5251 16.9454 20.4806 16.6959 20.5891 16.4432C20.6658 16.2523 20.9538 15.849 21.4525 15.233C21.7148 14.9065 21.9225 14.6448 22.0759 14.4476C23.1823 13.0308 23.662 12.1254 23.5148 11.7312L23.4577 11.639C23.4193 11.5835 23.3201 11.5328 23.1605 11.4865C23.0004 11.4403 22.7958 11.4327 22.5464 11.4635L19.7838 11.4819C19.7391 11.4666 19.6752 11.468 19.5919 11.4865C19.5088 11.505 19.4672 11.5143 19.4672 11.5143L19.4191 11.5375L19.3809 11.5653C19.3489 11.5836 19.3138 11.616 19.2754 11.6622C19.2372 11.7082 19.2052 11.7623 19.1797 11.8239C18.8789 12.5692 18.537 13.2622 18.1532 13.9028C17.9165 14.2847 17.6992 14.6158 17.5008 14.8961C17.3026 15.1763 17.1363 15.3827 17.0021 15.515C16.8677 15.6475 16.7464 15.7536 16.6375 15.8338C16.5288 15.914 16.4457 15.9478 16.3883 15.9354C16.3306 15.9231 16.2764 15.9108 16.225 15.8985C16.1355 15.843 16.0636 15.7676 16.0093 15.6721C15.9548 15.5766 15.9181 15.4565 15.8989 15.3117C15.8799 15.1668 15.8686 15.0422 15.8653 14.9375C15.8624 14.8329 15.8637 14.6849 15.8702 14.4939C15.8769 14.3029 15.8799 14.1736 15.8799 14.1059C15.8799 13.8718 15.8846 13.6177 15.8941 13.3436C15.9038 13.0695 15.9116 12.8523 15.9182 12.6923C15.9247 12.5321 15.9277 12.3627 15.9277 12.184C15.9277 12.0054 15.9164 11.8653 15.8941 11.7636C15.8721 11.6621 15.8382 11.5635 15.7937 11.4679C15.7488 11.3724 15.6831 11.2986 15.597 11.2462C15.5107 11.1938 15.4034 11.1523 15.2757 11.1214C14.9367 11.0475 14.5051 11.0075 13.9806 11.0013C12.7912 10.989 12.027 11.063 11.688 11.2232C11.5537 11.2908 11.4322 11.3833 11.3236 11.5002C11.2084 11.6358 11.1924 11.7098 11.2755 11.722C11.6592 11.7773 11.9309 11.9098 12.0908 12.1192L12.1484 12.2302C12.1932 12.3102 12.238 12.452 12.2828 12.6552C12.3275 12.8585 12.3564 13.0833 12.3691 13.3296C12.401 13.7793 12.401 14.1643 12.3691 14.4845C12.337 14.8049 12.3068 15.0544 12.2779 15.233C12.2491 15.4116 12.2059 15.5564 12.1484 15.6672C12.0908 15.7781 12.0525 15.8459 12.0332 15.8705C12.0141 15.8951 11.9981 15.9106 11.9854 15.9166C11.9022 15.9473 11.8158 15.963 11.7263 15.963C11.6367 15.963 11.5281 15.9198 11.4002 15.8335C11.2724 15.7472 11.1397 15.6287 11.0022 15.4778C10.8647 15.3268 10.7096 15.1158 10.5368 14.8448C10.3643 14.5738 10.1852 14.2535 9.99972 13.884L9.84628 13.6159C9.75036 13.4435 9.61933 13.1924 9.45305 12.863C9.28668 12.5334 9.13962 12.2145 9.01178 11.9065C8.96068 11.7772 8.88391 11.6787 8.78161 11.6109L8.73359 11.5831C8.70168 11.5585 8.65044 11.5324 8.58015 11.5046C8.50977 11.4768 8.43632 11.4568 8.35952 11.4446L5.73122 11.463C5.46264 11.463 5.2804 11.5216 5.18445 11.6386L5.14605 11.694C5.12686 11.7248 5.11719 11.7741 5.11719 11.8419C5.11719 11.9097 5.13637 11.9928 5.17477 12.0913C5.55846 12.9599 5.97571 13.7976 6.42652 14.6045C6.87733 15.4115 7.26908 16.0615 7.60153 16.554C7.93404 17.0468 8.27297 17.512 8.61832 17.9492C8.96367 18.3865 9.19227 18.6668 9.30411 18.79C9.4161 18.9133 9.50405 19.0056 9.56799 19.0672L9.80784 19.2889C9.96132 19.4367 10.1867 19.6138 10.4841 19.8201C10.7815 20.0266 11.1108 20.2298 11.4721 20.4302C11.8335 20.6302 12.2539 20.7934 12.7336 20.9197C13.2132 21.0461 13.68 21.0968 14.134 21.0723H15.2372C15.4609 21.0537 15.6304 20.9859 15.7456 20.869L15.7838 20.8227C15.8094 20.7859 15.8335 20.7288 15.8556 20.6519C15.8781 20.5749 15.8892 20.4901 15.8892 20.3978C15.8827 20.133 15.9036 19.8943 15.9515 19.6819C15.9993 19.4694 16.0538 19.3093 16.1147 19.2014C16.1756 19.0936 16.2444 19.0027 16.3209 18.929C16.3975 18.8551 16.4522 18.8103 16.4842 18.7949C16.5161 18.7794 16.5415 18.7689 16.5607 18.7626C16.7142 18.7133 16.8948 18.761 17.1028 18.9059C17.3107 19.0507 17.5056 19.2294 17.688 19.4419C17.8703 19.6545 18.0893 19.893 18.345 20.1578C18.6009 20.4228 18.8247 20.6197 19.0165 20.7492L19.2082 20.8601C19.3363 20.9341 19.5026 21.0018 19.7073 21.0634C19.9116 21.125 20.0906 21.1404 20.2443 21.1096L22.6998 21.0727C22.9427 21.0727 23.1317 21.034 23.2657 20.9571C23.4001 20.8801 23.4799 20.7953 23.5056 20.703C23.5313 20.6107 23.5326 20.5059 23.5105 20.3887C23.4877 20.2719 23.4653 20.1902 23.443 20.144Z" fill="white"/>
</svg>
