<svg width="85" height="49" viewBox="0 0 85 49" fill="none" xmlns="http://www.w3.org/2000/svg">
<path d="M71.5837 5.69531H67.5841C67.2604 5.69531 67 5.95575 67 6.27944V17.8355C67 18.1591 67.2604 18.4196 67.5841 18.4196H71.5837C71.9074 18.4196 72.1678 18.1591 72.1678 17.8355V6.27944C72.1716 5.95575 71.9074 5.69531 71.5837 5.69531Z" fill="#1D407E"/>
<path d="M84.4157 8.76123H80.4162C80.0925 8.76123 79.832 9.02167 79.832 9.34536V17.8356C79.832 18.1593 80.0925 18.4198 80.4162 18.4198H84.4157C84.7394 18.4198 84.9999 18.1593 84.9999 17.8356V9.34536C84.9999 9.02167 84.7394 8.76123 84.4157 8.76123Z" fill="#1D407E"/>
<path d="M78.0015 1H73.9982C73.6745 1 73.4141 1.26044 73.4141 1.58413V17.8355C73.4141 18.1592 73.6745 18.4196 73.9982 18.4196H77.9978C78.3215 18.4196 78.5819 18.1592 78.5819 17.8355V1.58413C78.5856 1.26044 78.3252 1 78.0015 1Z" fill="#1D407E"/>
<path d="M71.5837 32.6953H67.5841C67.2604 32.6953 67 32.9558 67 33.2794V44.8355C67 45.1591 67.2604 45.4196 67.5841 45.4196H71.5837C71.9074 45.4196 72.1678 45.1591 72.1678 44.8355V33.2794C72.1716 32.9558 71.9074 32.6953 71.5837 32.6953Z" fill="#D93C48"/>
<path d="M84.4157 35.7612H80.4162C80.0925 35.7612 79.832 36.0217 79.832 36.3454V44.8356C79.832 45.1593 80.0925 45.4198 80.4162 45.4198H84.4157C84.7394 45.4198 84.9999 45.1593 84.9999 44.8356V36.3454C84.9999 36.0217 84.7394 35.7612 84.4157 35.7612Z" fill="#D93C48"/>
<path d="M78.0015 28H73.9982C73.6745 28 73.4141 28.2604 73.4141 28.5841V44.8355C73.4141 45.1592 73.6745 45.4196 73.9982 45.4196H77.9978C78.3215 45.4196 78.5819 45.1592 78.5819 44.8355V28.5841C78.5856 28.2604 78.3252 28 78.0015 28Z" fill="#D93C48"/>
<path d="M7.45701 13.4767H19.631C19.9324 13.4767 20.1969 13.2774 20.2785 12.9878L22.974 3.55408C23.0319 3.35071 22.9922 3.13224 22.8646 2.96326C22.7369 2.7948 22.5383 2.6953 22.3263 2.6953H5.90142L5.41974 0.527831C5.3513 0.219169 5.07756 0 4.76171 0H0.673826C0.301467 0 0 0.301467 0 0.673826C0 1.04636 0.301467 1.34765 0.673826 1.34765H4.22089L6.65421 12.2973C5.93827 12.6086 5.43553 13.3212 5.43553 14.1505C5.43553 15.2651 6.34239 16.172 7.45701 16.172H19.631C20.0035 16.172 20.3048 15.8707 20.3048 15.4982C20.3048 15.1258 20.0035 14.8244 19.631 14.8244H7.45701C7.08588 14.8244 6.78318 14.5224 6.78318 14.1505C6.78318 13.7787 7.08588 13.4767 7.45701 13.4767Z" fill="#1D407E"/>
<path d="M6.7832 18.1934C6.7832 19.3082 7.69006 20.2148 8.80486 20.2148C9.91948 20.2148 10.8263 19.3082 10.8263 18.1934C10.8263 17.0787 9.91948 16.1719 8.80486 16.1719C7.69006 16.1719 6.7832 17.0787 6.7832 18.1934Z" fill="#1D407E"/>
<path d="M16.2617 18.1934C16.2617 19.3082 17.1686 20.2148 18.2832 20.2148C19.398 20.2148 20.3047 19.3082 20.3047 18.1934C20.3047 17.0787 19.398 16.1719 18.2832 16.1719C17.1686 16.1719 16.2617 17.0787 16.2617 18.1934Z" fill="#1D407E"/>
<path d="M7.45701 41.4767H19.631C19.9324 41.4767 20.1969 41.2774 20.2785 40.9878L22.974 31.5541C23.0319 31.3507 22.9922 31.1322 22.8646 30.9633C22.7369 30.7948 22.5383 30.6953 22.3263 30.6953H5.90142L5.41974 28.5278C5.3513 28.2192 5.07756 28 4.76171 28H0.673826C0.301467 28 0 28.3015 0 28.6738C0 29.0464 0.301467 29.3477 0.673826 29.3477H4.22089L6.65421 40.2973C5.93827 40.6086 5.43553 41.3212 5.43553 42.1505C5.43553 43.2651 6.34239 44.172 7.45701 44.172H19.631C20.0035 44.172 20.3048 43.8707 20.3048 43.4982C20.3048 43.1258 20.0035 42.8244 19.631 42.8244H7.45701C7.08588 42.8244 6.78318 42.5224 6.78318 42.1505C6.78318 41.7787 7.08588 41.4767 7.45701 41.4767Z" fill="#D93C48"/>
<path d="M6.7832 46.1934C6.7832 47.3082 7.69006 48.2148 8.80486 48.2148C9.91948 48.2148 10.8263 47.3082 10.8263 46.1934C10.8263 45.0787 9.91948 44.1719 8.80486 44.1719C7.69006 44.1719 6.7832 45.0787 6.7832 46.1934Z" fill="#D93C48"/>
<path d="M16.2617 46.1934C16.2617 47.3082 17.1686 48.2148 18.2832 48.2148C19.398 48.2148 20.3047 47.3082 20.3047 46.1934C20.3047 45.0787 19.398 44.1719 18.2832 44.1719C17.1686 44.1719 16.2617 45.0787 16.2617 46.1934Z" fill="#D93C48"/>
</svg>
