<svg width="26" height="26" viewBox="0 0 26 26" fill="none" xmlns="http://www.w3.org/2000/svg">
<path d="M6.09896 23.5606L6.56623 23.8186C8.48719 25.0053 10.7197 25.7276 13.056 25.7276C19.8572 25.7276 25.5162 20.1036 25.5162 13.2413C25.5162 6.379 19.8572 0.961426 13.004 0.961426C6.1509 0.961426 0.595703 6.43061 0.595703 13.2413C0.595703 15.6147 1.27064 17.9366 2.51666 19.8972L2.82819 20.3616L1.63411 24.6957L6.09896 23.5606Z" fill="#55CD6C"/>
<path d="M9.00685 6.327L8.02043 6.27539C7.7089 6.27539 7.39742 6.37861 7.18976 6.585C6.72249 6.99778 5.94374 7.77172 5.73607 8.80372C5.37267 10.3517 5.94374 12.2092 7.29362 14.0667C8.6435 15.9242 11.2394 18.9168 15.8081 20.2068C17.2618 20.6195 18.404 20.3615 19.3385 19.794C20.0654 19.3296 20.5326 18.6073 20.6884 17.8333L20.8442 17.1109C20.8961 16.9045 20.7922 16.6465 20.5846 16.5433L17.3137 15.047C17.1061 14.9438 16.8465 14.9954 16.6907 15.2018L15.3928 16.8529C15.2889 16.9561 15.1332 17.0076 14.9774 16.9561C14.0948 16.6465 11.1355 15.4082 9.52605 12.3123C9.47412 12.1575 9.47412 12.0027 9.57798 11.8995L10.824 10.5064C10.9279 10.3517 10.9797 10.1453 10.9279 9.99044L9.42224 6.63661C9.37025 6.48178 9.21452 6.327 9.00685 6.327Z" fill="white"/>
</svg>
