<svg width="40" height="40" viewBox="0 0 40 40" fill="none" xmlns="http://www.w3.org/2000/svg">
<path d="M40 19.4849C40 30.2462 31.2093 38.9698 20.3636 38.9698C16.9204 38.9698 13.6858 38.0898 10.8716 36.5453L0 40L3.54444 29.5458C1.75644 26.6098 0.726667 23.1662 0.726667 19.4849C0.726667 8.72356 9.51822 0 20.3636 0C31.2102 0 40 8.72356 40 19.4849ZM20.3636 3.10311C11.2596 3.10311 3.85422 10.452 3.85422 19.4849C3.85422 23.0693 5.02267 26.3889 6.99911 29.0893L4.93644 35.1733L11.2809 33.1569C13.8876 34.8684 17.0102 35.8667 20.364 35.8667C29.4667 35.8667 36.8733 28.5187 36.8733 19.4858C36.8733 10.4529 29.4671 3.10311 20.3636 3.10311ZM30.2796 23.9724C30.1582 23.7738 29.8378 23.6538 29.3569 23.4151C28.8751 23.1764 26.508 22.0204 26.068 21.8618C25.6267 21.7027 25.3049 21.6227 24.9844 22.1004C24.664 22.5787 23.7413 23.6538 23.46 23.9724C23.1791 24.292 22.8987 24.332 22.4169 24.0929C21.936 23.8542 20.3853 23.3493 18.5467 21.7227C17.116 20.4569 16.1498 18.8942 15.8689 18.4156C15.5884 17.9378 15.8396 17.6796 16.08 17.4418C16.2969 17.2276 16.5618 16.884 16.8022 16.6053C17.0436 16.3262 17.1236 16.1276 17.2831 15.8084C17.4444 15.4898 17.364 15.2111 17.2431 14.9716C17.1231 14.7329 16.1596 12.3827 15.7587 11.4262C15.3578 10.4707 14.9573 10.6298 14.676 10.6298C14.3956 10.6298 14.0742 10.5898 13.7533 10.5898C13.4324 10.5898 12.9107 10.7093 12.4693 11.1871C12.0284 11.6653 10.7853 12.8209 10.7853 15.1707C10.7853 17.5209 12.5093 19.7916 12.7507 20.1098C12.9911 20.428 16.0796 25.4076 20.9729 27.32C25.8667 29.2316 25.8667 28.5938 26.7493 28.5138C27.6311 28.4342 29.5964 27.3587 29.9991 26.244C30.3991 25.1276 30.3991 24.1716 30.2796 23.9724Z" fill="#1D407E"/>
</svg>
